<svg width="328" height="340" viewBox="0 0 328 340" fill="none" xmlns="http://www.w3.org/2000/svg">
<rect width="328" height="340" rx="16" fill="#C3EDFB"/>
<g clip-path="url(#clip0_73_18520)">
<path opacity="0.18" d="M175.831 27.152C143.073 29.8509 122.869 64.1506 93.3967 78.7142C80.1563 85.2597 65.2393 87.6599 51.6583 93.4613C28.5571 103.324 9.06595 126.147 11.1513 151.181C13.8549 183.631 48.8447 203.781 59.8425 234.423C62.8762 242.881 63.987 251.937 67.115 260.353C74.922 281.363 96.0793 296.692 118.463 297.562C136.44 298.259 153.594 290.529 171.382 287.804C193.158 284.46 215.358 288.689 237.401 287.94C259.444 287.19 283.509 279.696 294.318 260.495C303.068 244.946 300.93 225.577 296.089 208.403C291.248 191.23 283.897 174.47 282.917 156.652C281.785 135.905 288.518 112.002 274.822 96.3855C264.657 84.7671 245.884 82.0263 238.632 68.4007C230.804 53.727 228.059 51.7723 214.897 43.0729C201.882 34.4521 192.99 25.737 175.831 27.152Z" fill="#68E1FD"/>
<path d="M260.476 57.2802H181.301C174.903 57.2802 169.717 62.4678 169.717 68.8671V240.45C169.717 246.849 174.903 252.037 181.301 252.037H260.476C266.875 252.037 272.061 246.849 272.061 240.45V68.8671C272.061 62.4678 266.875 57.2802 260.476 57.2802Z" fill="#68E1FD"/>
<path d="M267.855 71.891V235.649C267.853 238.521 266.712 241.275 264.681 243.305C262.65 245.336 259.896 246.476 257.025 246.476H184.755C181.886 246.473 179.134 245.332 177.106 243.302C175.077 241.272 173.937 238.519 173.936 235.649V71.8962C173.937 69.0246 175.078 66.271 177.107 64.24C179.137 62.209 181.889 61.0667 184.76 61.0639H195.764V61.9181C195.764 62.7185 195.921 63.511 196.227 64.2505C196.534 64.9899 196.982 65.6618 197.548 66.2278C198.114 66.7937 198.786 67.2427 199.525 67.549C200.265 67.8553 201.057 68.0129 201.857 68.0129H239.362C240.162 68.0136 240.955 67.8564 241.695 67.5504C242.434 67.2443 243.106 66.7954 243.672 66.2293C244.238 65.6632 244.687 64.9911 244.993 64.2513C245.299 63.5115 245.456 62.7187 245.456 61.9181V61.0639H257.03C259.9 61.0667 262.652 62.2083 264.681 64.2381C266.711 66.268 267.852 69.0203 267.855 71.891Z" fill="#68E1FD"/>
<path opacity="0.81" d="M267.855 71.891V235.649C267.853 238.521 266.712 241.275 264.681 243.305C262.65 245.336 259.896 246.476 257.025 246.476H184.755C181.886 246.473 179.134 245.332 177.106 243.302C175.077 241.272 173.937 238.519 173.936 235.649V71.8962C173.937 69.0246 175.078 66.271 177.107 64.24C179.137 62.209 181.889 61.0667 184.76 61.0639H195.764V61.9181C195.764 62.7185 195.921 63.511 196.227 64.2505C196.534 64.9899 196.982 65.6618 197.548 66.2278C198.114 66.7937 198.786 67.2427 199.525 67.549C200.265 67.8553 201.057 68.0129 201.857 68.0129H239.362C240.162 68.0136 240.955 67.8564 241.695 67.5504C242.434 67.2443 243.106 66.7954 243.672 66.2293C244.238 65.6632 244.687 64.9911 244.993 64.2513C245.299 63.5115 245.456 62.7187 245.456 61.9181V61.0639H257.03C259.9 61.0667 262.652 62.2083 264.681 64.2381C266.711 66.268 267.852 69.0203 267.855 71.891Z" fill="url(#paint0_linear_73_18520)"/>
<path opacity="0.17" d="M253.188 165.755H194.84C191.889 165.755 189.496 168.149 189.496 171.101V185.418C189.496 188.37 191.889 190.763 194.84 190.763H253.188C256.14 190.763 258.533 188.37 258.533 185.418V171.101C258.533 168.149 256.14 165.755 253.188 165.755Z" fill="white"/>
<path opacity="0.17" d="M253.188 200.941H194.84C191.889 200.941 189.496 203.334 189.496 206.286V220.603C189.496 223.556 191.889 225.949 194.84 225.949H253.188C256.14 225.949 258.533 223.556 258.533 220.603V206.286C258.533 203.334 256.14 200.941 253.188 200.941Z" fill="white"/>
<path d="M285.631 179.994L260.874 156.265C260.874 156.265 251.862 163.402 255.708 176.32C259.554 189.238 272.06 204.787 272.06 204.787V240.423C272.06 240.423 272.202 252.016 260.471 252.016H181.301C181.301 252.016 188.207 270.2 202.259 285.639C216.312 301.078 241.524 320.149 240.445 340H308.999C308.999 340 291.436 277.474 297.472 252.037C303.508 226.599 301.255 194.956 285.631 179.994Z" fill="url(#paint1_linear_73_18520)"/>
<path d="M180.841 131.23C178.336 130.617 172.059 126.288 166.945 121.661C163.697 118.726 160.915 115.671 159.861 113.365C157.147 107.433 156.67 94.4413 166.945 95.437C166.945 95.437 171.137 94.4832 180.841 108.952C190.544 123.422 184.938 132.236 180.841 131.23Z" fill="url(#paint2_linear_73_18520)"/>
<path d="M182.841 155.353C180.222 155.196 172.886 151.878 166.929 148.11C163.429 145.899 160.379 143.53 158.996 141.549C155.255 136.204 152.452 123.511 162.743 122.646C162.743 122.646 163.906 122.122 166.934 123.694C169.465 124.999 173.295 127.74 178.844 133.437C191.005 145.925 187.065 155.604 182.841 155.353Z" fill="url(#paint3_linear_73_18520)"/>
<path d="M176.46 186.744C174.721 186.272 170.744 183.259 166.945 179.632C163.277 176.147 159.814 172.096 158.635 169.198C156.225 163.277 155.491 150.191 164.011 150.972C164.011 150.972 164.917 150.694 166.945 152.376C168.858 153.948 171.771 157.302 175.852 164.283C184.272 178.658 179.866 187.661 176.46 186.744Z" fill="url(#paint4_linear_73_18520)"/>
<path d="M180.369 212.763C178.163 212.596 171.75 209.368 166.945 205.919C164.682 204.295 162.754 202.623 161.826 201.203C158.892 196.774 156.587 186.319 164.546 185.706C164.546 185.706 165.222 185.402 166.945 186.183C168.858 187.048 172.07 189.259 177.073 194.725C186.568 205.096 183.618 213.01 180.369 212.763Z" fill="url(#paint5_linear_73_18520)"/>
<path opacity="0.17" d="M253.188 95.3846H194.84C191.889 95.3846 189.496 97.7778 189.496 100.73V115.047C189.496 117.999 191.889 120.393 194.84 120.393H253.188C256.14 120.393 258.533 117.999 258.533 115.047V100.73C258.533 97.7778 256.14 95.3846 253.188 95.3846Z" fill="white"/>
<path opacity="0.17" d="M253.188 130.57H194.84C191.889 130.57 189.496 132.963 189.496 135.915V150.233C189.496 153.185 191.889 155.578 194.84 155.578H253.188C256.14 155.578 258.533 153.185 258.533 150.233V135.915C258.533 132.963 256.14 130.57 253.188 130.57Z" fill="white"/>
<path opacity="0.81" d="M166.946 95.437V121.64C163.697 118.705 160.915 115.65 159.862 113.344C157.169 107.433 156.671 94.4413 166.946 95.437Z" fill="url(#paint6_linear_73_18520)"/>
<path opacity="0.81" d="M166.945 123.689V148.11C163.445 145.899 160.395 143.53 159.012 141.549C155.271 136.204 152.468 123.511 162.758 122.646C162.758 122.646 163.921 122.143 166.945 123.689Z" fill="url(#paint7_linear_73_18520)"/>
<path opacity="0.81" d="M166.945 152.376V179.627C163.277 176.142 159.814 172.091 158.635 169.193C156.225 163.271 155.491 150.186 164.011 150.966C164.011 150.972 164.917 150.678 166.945 152.376Z" fill="url(#paint8_linear_73_18520)"/>
<path opacity="0.81" d="M166.945 186.183V205.919C164.682 204.295 162.754 202.623 161.826 201.203C158.892 196.774 156.587 186.319 164.546 185.706C164.546 185.706 165.222 185.402 166.945 186.183Z" fill="url(#paint9_linear_73_18520)"/>
<path d="M159.107 46.9143V249.898C159.107 251.419 158.808 252.925 158.227 254.33C157.646 255.735 156.793 257.012 155.718 258.088C154.644 259.163 153.367 260.016 151.963 260.598C150.558 261.18 149.053 261.48 147.532 261.48H51.2187C49.6983 261.48 48.1928 261.18 46.7883 260.598C45.3837 260.016 44.1075 259.163 43.0327 258.088C41.9579 257.012 41.1054 255.735 40.5241 254.33C39.9427 252.925 39.6438 251.419 39.6445 249.898V46.9143C39.6438 45.3936 39.9427 43.8877 40.5241 42.4825C41.1054 41.0774 41.9579 39.8006 43.0327 38.7251C44.1075 37.6495 45.3837 36.7964 46.7883 36.2143C48.1928 35.6322 49.6983 35.3325 51.2187 35.3326H147.532C149.053 35.3325 150.558 35.6322 151.963 36.2143C153.367 36.7964 154.644 37.6495 155.718 38.7251C156.793 39.8006 157.646 41.0774 158.227 42.4825C158.808 43.8877 159.107 45.3936 159.107 46.9143Z" fill="#68E1FD"/>
<path opacity="0.17" d="M69.1852 35.3326V261.48H51.2187C49.6983 261.48 48.1928 261.18 46.7883 260.598C45.3837 260.016 44.1075 259.163 43.0327 258.088C41.9579 257.012 41.1054 255.735 40.5241 254.33C39.9427 252.925 39.6438 251.419 39.6445 249.898V46.9143C39.6438 45.3936 39.9427 43.8877 40.5241 42.4825C41.1054 41.0774 41.9579 39.8006 43.0327 38.7251C44.1075 37.6495 45.3837 36.7964 46.7883 36.2143C48.1928 35.6322 49.6983 35.3325 51.2187 35.3326H69.1852Z" fill="white"/>
<path opacity="0.19" d="M141.077 142.089V178.679C141.077 180.237 140.458 181.731 139.357 182.833C138.255 183.934 136.761 184.553 135.204 184.553H39.6445V136.219H135.204C135.975 136.219 136.738 136.37 137.451 136.665C138.164 136.959 138.811 137.391 139.357 137.937C139.902 138.482 140.335 139.129 140.63 139.841C140.925 140.554 141.077 141.318 141.077 142.089Z" fill="url(#paint10_linear_73_18520)"/>
<path d="M128.848 127.41H18.0943C14.8504 127.41 12.2207 130.04 12.2207 133.285V169.874C12.2207 173.119 14.8504 175.749 18.0943 175.749H128.848C132.092 175.749 134.722 173.119 134.722 169.874V133.285C134.722 130.04 132.092 127.41 128.848 127.41Z" fill="#68E1FD"/>
<path opacity="0.19" d="M135.838 82.5504H59.5915C58.8518 82.5504 58.1422 82.2568 57.6186 81.7341C57.0951 81.2114 56.8002 80.5023 56.7988 79.7624C56.7988 79.0215 57.0931 78.3111 57.6168 77.7872C58.1405 77.2634 58.8508 76.9691 59.5915 76.9691H135.838C136.578 76.9691 137.289 77.2634 137.812 77.7872C138.336 78.3111 138.63 79.0215 138.63 79.7624C138.63 80.1289 138.558 80.4919 138.418 80.8305C138.277 81.1691 138.071 81.4767 137.812 81.7356C137.553 81.9946 137.245 82.1998 136.906 82.3396C136.567 82.4794 136.204 82.551 135.838 82.5504Z" fill="url(#paint11_linear_73_18520)"/>
<path opacity="0.19" d="M135.838 99.7081H59.5915C58.8508 99.7081 58.1405 99.4138 57.6168 98.8899C57.0931 98.3661 56.7988 97.6556 56.7988 96.9148C56.8002 96.1749 57.0951 95.4658 57.6186 94.9431C58.1422 94.4204 58.8518 94.1268 59.5915 94.1268H135.838C136.204 94.1261 136.567 94.1977 136.906 94.3375C137.245 94.4773 137.553 94.6826 137.812 94.9416C138.071 95.2005 138.277 95.5081 138.418 95.8467C138.558 96.1853 138.63 96.5483 138.63 96.9148C138.63 97.6556 138.336 98.3661 137.812 98.8899C137.289 99.4138 136.578 99.7081 135.838 99.7081Z" fill="url(#paint12_linear_73_18520)"/>
<path opacity="0.19" d="M135.838 116.855H59.5915C58.8518 116.855 58.1422 116.562 57.6186 116.039C57.0951 115.516 56.8002 114.807 56.7988 114.067C56.7988 113.326 57.0931 112.616 57.6168 112.092C58.1405 111.568 58.8508 111.274 59.5915 111.274H135.838C136.578 111.274 137.289 111.568 137.812 112.092C138.336 112.616 138.63 113.326 138.63 114.067C138.63 114.434 138.558 114.797 138.418 115.135C138.277 115.474 138.071 115.782 137.812 116.041C137.553 116.3 137.245 116.505 136.906 116.645C136.567 116.784 136.204 116.856 135.838 116.855Z" fill="url(#paint13_linear_73_18520)"/>
<path opacity="0.19" d="M49.0024 139.673V161.93C49.0021 163.042 48.5724 164.11 47.8031 164.913C47.0338 165.716 45.9843 166.19 44.8737 166.237C44.8109 166.243 44.7478 166.243 44.685 166.237H22.4326C21.2876 166.237 20.1894 165.783 19.3798 164.973C18.5701 164.163 18.1152 163.064 18.1152 161.919V139.673C18.1152 139.106 18.2269 138.545 18.444 138.021C18.661 137.498 18.9791 137.022 19.3801 136.621C19.7811 136.221 20.2571 135.903 20.7808 135.687C21.3046 135.47 21.8659 135.359 22.4326 135.36H44.685C45.2518 135.359 45.8131 135.47 46.3368 135.687C46.8606 135.903 47.3366 136.221 47.7376 136.621C48.1386 137.022 48.4567 137.498 48.6737 138.021C48.8907 138.545 49.0024 139.106 49.0024 139.673Z" fill="url(#paint14_linear_73_18520)"/>
<path opacity="0.17" d="M45.3657 162.857C45.3665 163.995 45.2005 165.127 44.8732 166.217C44.8105 166.222 44.7474 166.222 44.6846 166.217H22.5789C21.7115 163.328 21.9964 160.215 23.3738 157.532C24.7512 154.849 27.1141 152.804 29.9667 151.826C28.7702 151.149 27.8269 150.101 27.2798 148.839C26.7328 147.578 26.6119 146.173 26.9354 144.837C27.259 143.5 28.0093 142.306 29.0726 141.435C30.136 140.564 31.4544 140.063 32.8279 140.009C34.2013 139.955 35.555 140.35 36.6837 141.135C37.8123 141.92 38.6543 143.051 39.082 144.358C39.5098 145.664 39.4999 147.075 39.0538 148.375C38.6078 149.675 37.75 150.795 36.6104 151.564C39.117 152.206 41.3384 153.664 42.9239 155.709C44.5094 157.754 45.3685 160.269 45.3657 162.857Z" fill="white"/>
</g>
<defs>
<linearGradient id="paint0_linear_73_18520" x1="222.003" y1="-72.7443" x2="220.279" y2="277.595" gradientUnits="userSpaceOnUse">
<stop/>
<stop offset="0.97" stop-opacity="0.1"/>
</linearGradient>
<linearGradient id="paint1_linear_73_18520" x1="181.301" y1="248.132" x2="308.999" y2="248.132" gradientUnits="userSpaceOnUse">
<stop stop-color="#ECC4D7"/>
<stop offset="0.42" stop-color="#EFD4D1"/>
<stop offset="1" stop-color="#F2EAC9"/>
</linearGradient>
<linearGradient id="paint2_linear_73_18520" x1="158.195" y1="113.344" x2="186.211" y2="113.344" gradientUnits="userSpaceOnUse">
<stop stop-color="#ECC4D7"/>
<stop offset="0.42" stop-color="#EFD4D1"/>
<stop offset="1" stop-color="#F2EAC9"/>
</linearGradient>
<linearGradient id="paint3_linear_73_18520" x1="155.617" y1="138.96" x2="186.986" y2="138.96" gradientUnits="userSpaceOnUse">
<stop stop-color="#ECC4D7"/>
<stop offset="0.42" stop-color="#EFD4D1"/>
<stop offset="1" stop-color="#F2EAC9"/>
</linearGradient>
<linearGradient id="paint4_linear_73_18520" x1="157.027" y1="168.873" x2="180.699" y2="168.873" gradientUnits="userSpaceOnUse">
<stop stop-color="#ECC4D7"/>
<stop offset="0.42" stop-color="#EFD4D1"/>
<stop offset="1" stop-color="#F2EAC9"/>
</linearGradient>
<linearGradient id="paint5_linear_73_18520" x1="159.107" y1="199.206" x2="183.502" y2="199.206" gradientUnits="userSpaceOnUse">
<stop stop-color="#ECC4D7"/>
<stop offset="0.42" stop-color="#EFD4D1"/>
<stop offset="1" stop-color="#F2EAC9"/>
</linearGradient>
<linearGradient id="paint6_linear_73_18520" x1="138.233" y1="109.644" x2="163.032" y2="108.654" gradientUnits="userSpaceOnUse">
<stop/>
<stop offset="0.97" stop-opacity="0.1"/>
</linearGradient>
<linearGradient id="paint7_linear_73_18520" x1="139.301" y1="136.371" x2="164.1" y2="135.381" gradientUnits="userSpaceOnUse">
<stop/>
<stop offset="0.97" stop-opacity="0.1"/>
</linearGradient>
<linearGradient id="paint8_linear_73_18520" x1="140.501" y1="166.269" x2="165.295" y2="165.279" gradientUnits="userSpaceOnUse">
<stop/>
<stop offset="0.97" stop-opacity="0.1"/>
</linearGradient>
<linearGradient id="paint9_linear_73_18520" x1="141.717" y1="196.753" x2="166.516" y2="195.758" gradientUnits="userSpaceOnUse">
<stop/>
<stop offset="0.97" stop-opacity="0.1"/>
</linearGradient>
<linearGradient id="paint10_linear_73_18520" x1="82.3208" y1="148.771" x2="107.803" y2="192.347" gradientUnits="userSpaceOnUse">
<stop stop-color="#183866"/>
<stop offset="1" stop-color="#1A7FC1"/>
</linearGradient>
<linearGradient id="paint11_linear_73_18520" x1="93.0147" y1="58.6165" x2="98.6703" y2="84.0539" gradientUnits="userSpaceOnUse">
<stop stop-color="#183866"/>
<stop offset="1" stop-color="#1A7FC1"/>
</linearGradient>
<linearGradient id="paint12_linear_73_18520" x1="89.3837" y1="59.4235" x2="95.0393" y2="84.861" gradientUnits="userSpaceOnUse">
<stop stop-color="#183866"/>
<stop offset="1" stop-color="#1A7FC1"/>
</linearGradient>
<linearGradient id="paint13_linear_73_18520" x1="85.7526" y1="60.2306" x2="91.4083" y2="85.668" gradientUnits="userSpaceOnUse">
<stop stop-color="#183866"/>
<stop offset="1" stop-color="#1A7FC1"/>
</linearGradient>
<linearGradient id="paint14_linear_73_18520" x1="-17.1156" y1="150.783" x2="-16.9322" y2="150.783" gradientUnits="userSpaceOnUse">
<stop stop-color="#183866"/>
<stop offset="1" stop-color="#1A7FC1"/>
</linearGradient>
<clipPath id="clip0_73_18520">
<rect width="298" height="313" fill="white" transform="translate(11 27)"/>
</clipPath>
</defs>
</svg>
