<svg width="328" height="234" viewBox="0 0 328 234" fill="none" xmlns="http://www.w3.org/2000/svg">
<g clip-path="url(#clip0_5_4814)">
<path opacity="0.18" d="M303.43 47.1221C306.679 65.6249 288.109 83.8717 293.846 101.743C297.148 112.066 307.054 118.503 315.594 125.143C329.165 135.672 341.688 150.971 339.814 168.049C337.788 186.469 320.254 199.493 302.828 205.773C237.46 229.309 13.6085 270.655 0.355026 166.29C-2.17101 146.342 9.28284 126.576 22.1359 111.116C32.3598 98.8234 89.3071 43.5751 110.122 33.2605C202.843 -12.7013 293.863 -7.34166 303.43 47.1221Z" fill="#68E1FD"/>
<path opacity="0.05" d="M189.849 20.4105C189.849 20.4105 312.436 19.341 291.873 69.5063C275.945 108.32 294.147 111.165 299.839 129.937C305.531 148.708 298.923 170.093 285.195 180.226C271.467 190.359 216.624 188.567 216.624 203.585C216.624 218.602 201.353 213.111 201.353 213.111H105.223L122.781 160.142L189.849 20.4105Z" fill="#000405"/>
<path d="M105.223 207.226H208.415V213.111H105.223V207.226ZM122.781 160.137H192.652V207.226H122.781V160.137Z" fill="#68E1FD"/>
<path d="M122.781 160.137H192.652V207.226H122.781V160.137Z" fill="#68E1FD"/>
<path d="M122.781 160.137H192.652V207.226H122.781V160.137Z" fill="url(#paint0_linear_5_4814)"/>
<path d="M285.195 26.9139V150.236C285.195 153.771 284.498 157.272 283.145 160.538C281.792 163.804 279.809 166.771 277.309 169.27C274.809 171.768 271.841 173.75 268.575 175.1C265.309 176.451 261.809 177.145 258.275 177.141H53.5504C46.4174 177.141 39.5766 174.307 34.5329 169.261C29.4891 164.215 26.6555 157.372 26.6555 150.236V26.9139C26.655 23.3801 27.3502 19.8807 28.7015 16.6157C30.0528 13.3506 32.0337 10.3838 34.5311 7.88462C37.0286 5.38543 39.9936 3.40282 43.2569 2.04997C46.5203 0.697127 50.018 0.000547277 53.5504 5.06848e-06H258.275C261.81 -0.00216479 265.31 0.692383 268.576 2.04396C271.842 3.39554 274.809 5.37766 277.309 7.87707C279.809 10.3765 281.792 13.3442 283.145 16.6106C284.498 19.877 285.195 23.3782 285.195 26.9139Z" fill="#68E1FD"/>
<path d="M285.195 26.9139V143.769H26.6844V26.9139C26.6839 23.3801 27.3791 19.8807 28.7304 16.6157C30.0817 13.3506 32.0626 10.3838 34.5601 7.88462C37.0575 5.38543 40.0225 3.40282 43.2858 2.04997C46.5492 0.697127 50.0469 0.000547277 53.5793 5.06849e-06H258.275C261.81 -0.00216479 265.31 0.692383 268.576 2.04396C271.842 3.39554 274.809 5.37766 277.309 7.87707C279.809 10.3765 281.792 13.3442 283.145 16.6106C284.499 19.877 285.195 23.3782 285.195 26.9139Z" fill="url(#paint1_linear_5_4814)"/>
<path d="M57.8967 24.3827H240.556V60.418H57.8967V24.3827Z" fill="url(#paint2_linear_5_4814)"/>
<path d="M57.8967 65.0179H140.868V137.596H57.8967V65.0179Z" fill="url(#paint3_linear_5_4814)"/>
<path d="M146.729 65.0179H239.082V89.2561H146.729V65.0179Z" fill="url(#paint4_linear_5_4814)"/>
<path d="M146.729 93.856H239.082V118.094H146.729V93.856Z" fill="url(#paint5_linear_5_4814)"/>
<path d="M146.729 122.694H239.082V137.596H146.729V122.694Z" fill="url(#paint6_linear_5_4814)"/>
<path d="M199.342 224.367H203.284L191.153 71.4924L187.823 72.3885L188.578 82.3769L176.608 83.1326L175.688 71.4924L172.357 72.3885L183.881 224.367H187.823L186.448 207.024L198.005 206.314L197.832 203.576L186.229 204.291L185.243 191.903L197.105 191.152L196.936 188.414L185.028 189.149L184.046 176.741L195.677 176.002L199.342 224.367ZM176.827 85.8578L188.797 85.0939L189.738 97.5062L177.822 98.2618L176.827 85.8578ZM178.028 100.995L189.936 100.231L190.877 112.697L179.027 113.441L178.028 100.995ZM179.237 116.162L191.083 115.402L192.09 128.653L180.265 129.371L179.237 116.162ZM180.5 132.1L192.297 131.394L193.172 142.956L181.421 143.703L180.5 132.1ZM181.635 146.437L193.378 145.689L194.319 158.118L182.622 158.857L181.635 146.437ZM183.827 174.007L182.837 161.579L194.53 160.831L195.471 173.268L183.827 174.007ZM98.9861 81.2001V71.4924H96.5549V81.2001H84.7296V84.2061H96.5549V218.606H98.9861V99.8557L113.399 84.2061H124.436V81.1836L98.9861 81.2001ZM98.9861 95.6068V84.2061H109.949L98.9861 95.6068ZM219.064 81.2001V71.4924H216.633V81.2001H193.275V84.2061H203.416L216.624 98.5344V218.606H219.064V84.2061H232.99V81.1836L219.064 81.2001ZM216.633 94.3598L206.863 84.2061H216.624L216.633 94.3598Z" fill="#68E1FD"/>
<g opacity="0.61">
<path d="M199.343 224.367H203.284L191.154 71.4924L187.823 72.3885L188.578 82.3769L176.608 83.1326L175.688 71.4924L172.357 72.3885L183.881 224.367H187.823L186.448 207.024L198.005 206.314L197.832 203.576L186.229 204.291L185.243 191.903L197.105 191.152L196.936 188.414L185.028 189.149L184.046 176.741L195.677 176.002L199.343 224.367ZM176.827 85.8578L188.797 85.0939L189.738 97.5062L177.822 98.2618L176.827 85.8578ZM178.028 100.995L189.936 100.231L190.877 112.697L179.027 113.441L178.028 100.995ZM179.237 116.162L191.083 115.402L192.09 128.653L180.265 129.371L179.237 116.162ZM180.5 132.1L192.297 131.394L193.172 142.956L181.421 143.703L180.5 132.1ZM181.635 146.437L193.378 145.689L194.319 158.118L182.622 158.857L181.635 146.437ZM183.827 174.007L182.837 161.579L194.53 160.831L195.471 173.268L183.827 174.007Z" fill="url(#paint7_linear_5_4814)"/>
<path d="M98.9861 81.2001V71.4924H96.555V81.2001H84.7296V84.2061H96.555V218.606H98.9861V99.8557L113.399 84.2061H124.436V81.1836L98.9861 81.2001ZM98.9861 95.6068V84.2061H109.949L98.9861 95.6068Z" fill="url(#paint8_linear_5_4814)"/>
<path d="M219.064 81.2001V71.4924H216.633V81.2001H193.275V84.2061H203.416L216.624 98.5344V218.606H219.064V84.2061H232.99V81.1836L219.064 81.2001ZM216.633 94.3598L206.863 84.2061H216.624L216.633 94.3598Z" fill="url(#paint9_linear_5_4814)"/>
</g>
<path d="M193.638 112.136L193.358 114.655H187.542C187.542 114.655 187.067 113.201 188.128 112.838C188.71 112.632 189.31 112.482 189.919 112.388L193.638 112.136Z" fill="#68E1FD"/>
<path d="M185.528 59.9679C185.26 62.2221 185.4 64.5062 185.94 66.7108C186.265 67.129 186.695 67.4531 187.186 67.6498C187.677 67.8465 188.212 67.9086 188.735 67.8298V69.5063H191.533L192.705 61.1158C192.705 61.1158 188.326 55.5208 185.528 59.9679Z" fill="url(#paint10_linear_5_4814)"/>
<path d="M187.488 60.8061C187.926 61.6834 188.206 62.6312 188.314 63.6057C188.314 63.6057 188.871 62.4867 189.139 63.0442C189.408 63.6016 188.582 64.7247 188.582 64.7247L189.408 66.1204H192.235C192.235 66.1204 193.634 59.9968 192.85 59.1545C192.066 58.3121 191.537 58.3286 191.537 58.3286C191.537 58.3286 191.537 57.5028 189.857 57.5028C188.178 57.5028 185.945 57.5028 185.107 58.9026C184.269 60.3024 183.988 59.7284 183.988 59.7284C183.988 59.7284 184.463 60.7649 185.189 60.513C185.363 60.4717 187.208 59.9679 187.488 60.8061Z" fill="#333333"/>
<path d="M188.743 69.5063H193.444C193.444 69.5063 195.43 69.9192 195.706 74.6801C195.875 77.9331 195.875 81.1927 195.706 84.4456V92.2498L193.444 91.4941L185.053 93.3688L184.228 81.9268C183.357 81.8207 182.52 81.5265 181.774 81.0644C181.029 80.6024 180.393 79.9837 179.91 79.2511C179.299 78.3349 178.915 77.2864 178.789 76.1923C178.662 75.0982 178.798 73.9897 179.184 72.9583L185.024 76.0345L185.334 74.3828C185.654 72.5931 186.656 70.9973 188.128 69.9316L188.743 69.5063Z" fill="#68E1FD"/>
<path d="M179.964 71.4098L178.569 66.9338L184.133 66.0915L186.007 72.1903L184.971 75.857L181.644 74.1764L179.964 71.4098Z" fill="#FCFDFF"/>
<path d="M178.845 73.9245C178.94 72.9883 179.332 72.1071 179.964 71.4099L180.244 71.6865H182.007L182.288 72.7807L181.644 73.7015C181.258 74.0242 180.781 74.2189 180.28 74.2589C179.779 74.2988 179.277 74.182 178.845 73.9245Z" fill="url(#paint11_linear_5_4814)"/>
<path d="M181.644 74.1764L183.014 77.8142L184.97 75.857L181.644 74.1764Z" fill="url(#paint12_linear_5_4814)"/>
<path opacity="0.61" d="M184.133 81.7286C184.133 81.7286 188.607 80.0481 188.607 77.2526L189.729 90.0985L184.97 91.2257L184.133 81.7286Z" fill="url(#paint13_linear_5_4814)"/>
<path d="M184.97 91.2133L184.133 105.145L185.251 112.417H188.607L189.164 100.417L191.12 95.3797L189.725 112.417L193.638 112.697L195.566 90.0943L193.358 89.2561L184.97 91.2133Z" fill="#333333"/>
<path d="M188.438 112.417V115.216L182.539 113.11C182.539 113.11 182.539 111.57 183.683 111.57C184.302 111.566 184.92 111.623 185.528 111.739L188.438 112.417ZM111.459 222.913L111.748 225.424H117.568C117.568 225.424 118.043 223.97 116.978 223.607C116.398 223.401 115.799 223.251 115.191 223.161L111.459 222.913Z" fill="#68E1FD"/>
<path d="M115.484 170.208C116.495 172.224 117.139 174.404 117.387 176.646C117.052 178.24 115.092 178.603 115.092 178.603L115.624 180.197L112.83 181.176L109.024 173.623C109.024 173.623 111.402 166.88 115.484 170.208Z" fill="url(#paint14_linear_5_4814)"/>
<path d="M113.891 171.637C113.73 172.562 113.73 173.508 113.891 174.433C113.891 174.433 112.995 173.565 112.912 174.181C112.83 174.796 113.973 175.581 113.973 175.581L113.639 177.174L111.096 178.041C111.096 178.041 107.794 172.674 108.298 171.637C108.801 170.601 109.053 170.489 109.053 170.489C109.053 170.489 108.772 169.705 110.366 169.147C111.959 168.59 114.08 167.909 115.319 168.953C116.557 169.998 116.631 169.366 116.631 169.366C116.631 169.366 116.631 170.485 115.736 170.514C115.822 170.63 113.891 170.741 113.891 171.637Z" fill="#333333"/>
<path d="M116.491 180.226H111.794C111.794 180.226 109.808 180.639 109.528 185.4C109.359 188.651 109.359 191.909 109.528 195.161V202.965L111.794 202.21L120.181 204.084L121.006 192.646C121.874 192.503 122.701 192.174 123.43 191.682C124.158 191.189 124.772 190.545 125.229 189.793C125.838 188.875 126.221 187.826 126.348 186.732C126.474 185.637 126.339 184.529 125.955 183.496L120.111 186.572L119.801 184.921C119.48 183.132 118.479 181.538 117.007 180.474L116.491 180.226Z" fill="#68E1FD"/>
<path d="M125.134 182.154L126.529 177.707L120.936 176.869L119.091 182.968L120.098 186.63L123.454 184.954L125.134 182.154Z" fill="#FCFDFF"/>
<path d="M126.248 184.702C126.157 183.763 125.765 182.88 125.13 182.183L124.853 182.464H123.091L122.81 183.554L123.454 184.475C123.839 184.797 124.315 184.992 124.815 185.033C125.315 185.073 125.816 184.958 126.248 184.702Z" fill="url(#paint15_linear_5_4814)"/>
<path opacity="0.61" d="M120.936 192.589C120.936 192.589 116.462 190.912 116.462 188.113L116.825 203.275L120.098 204.002L120.936 192.589Z" fill="url(#paint16_linear_5_4814)"/>
<path d="M120.098 201.987L120.936 215.918L119.846 223.19H116.491L115.934 211.19L113.973 206.153L115.372 223.19L111.459 223.471L109.503 200.868L111.736 200.029L120.098 201.987Z" fill="#333333"/>
<path d="M116.66 223.19V225.151L122.781 224.87C122.781 224.87 122.505 222.913 121.386 222.913C120.784 222.938 120.186 222.802 119.653 222.521L116.66 223.19Z" fill="#68E1FD"/>
<path d="M215.56 60.257H201.27C199.32 60.2559 197.45 59.4801 196.072 58.1003C194.693 56.7205 193.919 54.8496 193.919 52.8988V49.7647C193.919 47.8143 194.693 45.9438 196.072 44.5646C197.451 43.1855 199.32 42.4107 201.27 42.4107H215.56C216.525 42.4101 217.482 42.6 218.374 42.9693C219.266 43.3386 220.077 43.8802 220.76 44.5632C221.443 45.2461 221.985 46.057 222.355 46.9495C222.724 47.842 222.915 48.7986 222.915 49.7647V52.8988C222.915 53.8651 222.725 54.8219 222.355 55.7146C221.985 56.6074 221.443 57.4185 220.76 58.1018C220.077 58.7851 219.267 59.3271 218.374 59.6969C217.482 60.0666 216.525 60.257 215.56 60.257Z" fill="white"/>
<path d="M195.566 64.1342C195.566 64.1342 201.41 64.415 202.81 60.2198H207.143C207.143 60.2198 204.238 65.534 195.566 64.1342Z" fill="white"/>
<path opacity="0.15" d="M198.868 45.169H218.498C218.632 45.169 218.76 45.2221 218.854 45.3165C218.949 45.411 219.002 45.5391 219.002 45.6727V46.065C219.002 46.1986 218.949 46.3267 218.854 46.4212C218.76 46.5157 218.632 46.5688 218.498 46.5688H198.868C198.734 46.5688 198.606 46.5157 198.512 46.4212C198.417 46.3267 198.364 46.1986 198.364 46.065V45.6727C198.364 45.5391 198.417 45.411 198.512 45.3165C198.606 45.2221 198.734 45.169 198.868 45.169ZM198.868 48.526H218.498C218.632 48.526 218.76 48.5791 218.854 48.6735C218.949 48.768 219.002 48.8961 219.002 49.0297V49.422C219.002 49.5556 218.949 49.6838 218.854 49.7782C218.76 49.8727 218.632 49.9258 218.498 49.9258H198.868C198.734 49.9258 198.606 49.8727 198.512 49.7782C198.417 49.6838 198.364 49.5556 198.364 49.422V49.0297C198.364 48.8961 198.417 48.768 198.512 48.6735C198.606 48.5791 198.734 48.526 198.868 48.526ZM198.868 51.8541H218.498C218.632 51.8541 218.76 51.9072 218.854 52.0016C218.949 52.0961 219.002 52.2243 219.002 52.3579V52.7501C219.002 52.8837 218.949 53.0119 218.854 53.1063C218.76 53.2008 218.632 53.2539 218.498 53.2539H198.868C198.734 53.2539 198.606 53.2008 198.512 53.1063C198.417 53.0119 198.364 52.8837 198.364 52.7501V52.3579C198.364 52.2243 198.417 52.0961 198.512 52.0016C198.606 51.9072 198.734 51.8541 198.868 51.8541ZM198.868 55.2111H209.57C209.703 55.2122 209.83 55.2658 209.924 55.3601C210.017 55.4545 210.07 55.582 210.07 55.7149V56.1278C210.07 56.2607 210.017 56.3882 209.924 56.4826C209.83 56.5769 209.703 56.6305 209.57 56.6315H198.868C198.734 56.6315 198.606 56.5785 198.512 56.484C198.417 56.3895 198.364 56.2614 198.364 56.1278V55.7149C198.364 55.5813 198.417 55.4531 198.512 55.3587C198.606 55.2642 198.734 55.2111 198.868 55.2111Z" fill="#020202"/>
<path d="M85.2869 171.831H99.5763C101.498 171.825 103.341 171.066 104.709 169.717C106.078 168.368 106.864 166.535 106.899 164.613V161.343C106.899 159.393 106.124 157.522 104.745 156.143C103.367 154.764 101.497 153.989 99.5474 153.989H85.2869C83.3361 153.989 81.4653 154.764 80.0859 156.144C78.7066 157.524 77.9316 159.396 77.9316 161.347V164.618C77.9695 166.544 78.7611 168.379 80.1364 169.727C81.5117 171.076 83.3609 171.832 85.2869 171.831ZM105.223 175.803C105.223 175.803 99.3782 176.084 97.979 171.889H93.674C93.674 171.889 96.4766 177.145 105.223 175.803Z" fill="white"/>
<path opacity="0.15" d="M101.925 158.155H82.2945C82.1609 158.155 82.0328 158.102 81.9384 158.008C81.8439 157.913 81.7909 157.785 81.7909 157.652V157.259C81.7909 157.126 81.8439 156.998 81.9384 156.903C82.0328 156.809 82.1609 156.756 82.2945 156.756H101.925C102.058 156.756 102.187 156.809 102.281 156.903C102.375 156.998 102.428 157.126 102.428 157.259V157.652C102.428 157.785 102.375 157.913 102.281 158.008C102.187 158.102 102.058 158.155 101.925 158.155ZM101.925 161.537H82.2945C82.2283 161.537 82.1628 161.524 82.1017 161.499C82.0407 161.474 81.9851 161.436 81.9384 161.39C81.8916 161.343 81.8545 161.287 81.8292 161.226C81.8039 161.165 81.7909 161.1 81.7909 161.033V160.641C81.792 160.508 81.8455 160.381 81.9398 160.288C82.0342 160.194 82.1616 160.142 82.2945 160.142H101.925C102.058 160.142 102.185 160.194 102.28 160.288C102.374 160.381 102.427 160.508 102.428 160.641V161.033C102.428 161.1 102.415 161.165 102.39 161.226C102.365 161.287 102.328 161.343 102.281 161.39C102.234 161.436 102.179 161.474 102.118 161.499C102.057 161.524 101.991 161.537 101.925 161.537ZM101.925 164.865H82.2945C82.1616 164.865 82.0342 164.813 81.9398 164.719C81.8455 164.626 81.792 164.499 81.7909 164.366V163.973C81.7909 163.84 81.8439 163.712 81.9384 163.617C82.0328 163.523 82.1609 163.47 82.2945 163.47H101.925C102.058 163.47 102.187 163.523 102.281 163.617C102.375 163.712 102.428 163.84 102.428 163.973V164.366C102.427 164.499 102.374 164.626 102.28 164.719C102.185 164.813 102.058 164.865 101.925 164.865ZM101.925 168.222H91.214C91.0805 168.222 90.9524 168.169 90.8579 168.075C90.7635 167.98 90.7105 167.852 90.7105 167.719V167.33C90.7105 167.197 90.7635 167.069 90.8579 166.974C90.9524 166.88 91.0805 166.827 91.214 166.827H101.925C102.058 166.827 102.187 166.88 102.281 166.974C102.375 167.069 102.428 167.197 102.428 167.33V167.719C102.428 167.852 102.375 167.98 102.281 168.075C102.187 168.169 102.058 168.222 101.925 168.222Z" fill="#020202"/>
<path opacity="0.61" d="M123.343 185.23C123.343 185.23 122.517 188.868 121.386 188.311C121.052 188.139 120.756 187.902 120.515 187.613C120.275 187.324 120.095 186.99 119.987 186.63L123.343 185.23Z" fill="url(#paint17_linear_5_4814)"/>
</g>
<defs>
<linearGradient id="paint0_linear_5_4814" x1="157.721" y1="169.453" x2="157.721" y2="232.827" gradientUnits="userSpaceOnUse">
<stop stop-opacity="0.4"/>
<stop offset="1" stop-color="white" stop-opacity="0"/>
</linearGradient>
<linearGradient id="paint1_linear_5_4814" x1="70.4237" y1="-16.273" x2="280.34" y2="220.439" gradientUnits="userSpaceOnUse">
<stop offset="0.02" stop-color="white" stop-opacity="0"/>
<stop offset="1" stop-color="white"/>
</linearGradient>
<linearGradient id="paint2_linear_5_4814" x1="144.203" y1="260.939" x2="151.676" y2="-64.002" gradientUnits="userSpaceOnUse">
<stop offset="0.02" stop-color="white" stop-opacity="0"/>
<stop offset="1" stop-color="white"/>
</linearGradient>
<linearGradient id="paint3_linear_5_4814" x1="94.9164" y1="295.686" x2="102.389" y2="-29.255" gradientUnits="userSpaceOnUse">
<stop offset="0.02" stop-color="white" stop-opacity="0"/>
<stop offset="1" stop-color="white"/>
</linearGradient>
<linearGradient id="paint4_linear_5_4814" x1="188.054" y1="288.319" x2="195.526" y2="-36.6214" gradientUnits="userSpaceOnUse">
<stop offset="0.02" stop-color="white" stop-opacity="0"/>
<stop offset="1" stop-color="white"/>
</linearGradient>
<linearGradient id="paint5_linear_5_4814" x1="187.897" y1="324.032" x2="195.37" y2="-0.908279" gradientUnits="userSpaceOnUse">
<stop offset="0.02" stop-color="white" stop-opacity="0"/>
<stop offset="1" stop-color="white"/>
</linearGradient>
<linearGradient id="paint6_linear_5_4814" x1="190.32" y1="242.708" x2="197.792" y2="-82.2281" gradientUnits="userSpaceOnUse">
<stop offset="0.02" stop-color="white" stop-opacity="0"/>
<stop offset="1" stop-color="white"/>
</linearGradient>
<linearGradient id="paint7_linear_5_4814" x1="221.132" y1="238.183" x2="136.888" y2="12.1825" gradientUnits="userSpaceOnUse">
<stop offset="0.58"/>
<stop offset="0.78" stop-opacity="0.16"/>
</linearGradient>
<linearGradient id="paint8_linear_5_4814" x1="152.854" y1="263.635" x2="68.6102" y2="37.6305" gradientUnits="userSpaceOnUse">
<stop offset="0.58"/>
<stop offset="0.78" stop-opacity="0.16"/>
</linearGradient>
<linearGradient id="paint9_linear_5_4814" x1="253.227" y1="226.221" x2="168.983" y2="0.216151" gradientUnits="userSpaceOnUse">
<stop offset="0.58"/>
<stop offset="0.78" stop-opacity="0.16"/>
</linearGradient>
<linearGradient id="paint10_linear_5_4814" x1="185.4" y1="63.8782" x2="192.714" y2="63.8782" gradientUnits="userSpaceOnUse">
<stop stop-color="#ECC4D7"/>
<stop offset="0.42" stop-color="#EFD4D1"/>
<stop offset="1" stop-color="#F2EAC9"/>
</linearGradient>
<linearGradient id="paint11_linear_5_4814" x1="178.845" y1="72.8385" x2="182.288" y2="72.8385" gradientUnits="userSpaceOnUse">
<stop stop-color="#ECC4D7"/>
<stop offset="0.42" stop-color="#EFD4D1"/>
<stop offset="1" stop-color="#F2EAC9"/>
</linearGradient>
<linearGradient id="paint12_linear_5_4814" x1="180.562" y1="75.3202" x2="187.406" y2="77.9363" gradientUnits="userSpaceOnUse">
<stop stop-color="#68E1FD"/>
<stop offset="0.01" stop-color="#67DDF9"/>
<stop offset="0.12" stop-color="#5CB3CE"/>
<stop offset="0.24" stop-color="#538EA9"/>
<stop offset="0.37" stop-color="#4C718B"/>
<stop offset="0.5" stop-color="#465A73"/>
<stop offset="0.63" stop-color="#424A63"/>
<stop offset="0.79" stop-color="#404059"/>
<stop offset="0.99" stop-color="#3F3D56"/>
</linearGradient>
<linearGradient id="paint13_linear_5_4814" x1="173.711" y1="84.9618" x2="194.992" y2="83.7777" gradientUnits="userSpaceOnUse">
<stop offset="0.36" stop-color="#00272E"/>
<stop offset="1" stop-color="#69B9EB" stop-opacity="0"/>
</linearGradient>
<linearGradient id="paint14_linear_5_4814" x1="109.024" y1="175.23" x2="117.387" y2="175.23" gradientUnits="userSpaceOnUse">
<stop stop-color="#ECC4D7"/>
<stop offset="0.42" stop-color="#EFD4D1"/>
<stop offset="1" stop-color="#F2EAC9"/>
</linearGradient>
<linearGradient id="paint15_linear_5_4814" x1="122.81" y1="183.612" x2="126.248" y2="183.612" gradientUnits="userSpaceOnUse">
<stop stop-color="#ECC4D7"/>
<stop offset="0.42" stop-color="#EFD4D1"/>
<stop offset="1" stop-color="#F2EAC9"/>
</linearGradient>
<linearGradient id="paint16_linear_5_4814" x1="127.309" y1="197.184" x2="112.871" y2="195.381" gradientUnits="userSpaceOnUse">
<stop offset="0.36" stop-color="#00272E"/>
<stop offset="1" stop-color="#69B9EB" stop-opacity="0"/>
</linearGradient>
<linearGradient id="paint17_linear_5_4814" x1="119.987" y1="186.799" x2="123.343" y2="186.799" gradientUnits="userSpaceOnUse">
<stop offset="0.36" stop-color="#00272E"/>
<stop offset="1" stop-color="#69B9EB" stop-opacity="0"/>
</linearGradient>
<clipPath id="clip0_5_4814">
<rect width="340" height="234" fill="white"/>
</clipPath>
</defs>
</svg>
