<svg width="24" height="24" viewBox="0 0 24 24" fill="none" xmlns="http://www.w3.org/2000/svg">
<path d="M4.62889 8.00008L4.754 7.40418L5.134 5.59418L5.134 5.59418L5.13462 5.5912C5.30705 4.75297 5.5492 4.0898 5.99981 3.62708C6.42562 3.18984 7.14049 2.83008 8.49 2.83008H15.51C16.8595 2.83008 17.5744 3.18984 18.0002 3.62708C18.4508 4.0898 18.6929 4.75297 18.8654 5.5912L18.866 5.59418L19.246 7.40418L19.3711 8.00008H4.62889Z" fill="#2D46C4" stroke="#2D46C4" stroke-width="1.5"/>
<path d="M21.4331 13.7279L21.4332 13.7287L21.9932 19.8187L21.9932 19.8188C22.044 20.3709 21.8624 20.9216 21.4864 21.3341C21.1011 21.7557 20.5433 22 19.96 22H18.08C17.4256 22 17.1514 21.8187 17.0161 21.6817C16.8507 21.5142 16.7666 21.2933 16.6627 20.9763L16.6627 20.9763L16.6615 20.9728L16.4615 20.3728L16.4616 20.3728L16.4596 20.3672C16.4562 20.3572 16.4527 20.347 16.4493 20.3368C16.3923 20.1701 16.3313 19.9915 16.2624 19.8418C16.185 19.6733 16.067 19.4694 15.8588 19.3056C15.6473 19.1391 15.4143 19.0698 15.207 19.0368C15.01 19.0055 14.7877 19 14.56 19H9.44002C9.00847 19 8.50441 19.0231 8.11683 19.3424C7.91895 19.5055 7.80293 19.702 7.72521 19.8708C7.65495 20.0233 7.5963 20.1994 7.54444 20.3551L7.53851 20.3728L7.33851 20.9728L7.3385 20.9728L7.33735 20.9763C7.23342 21.2933 7.14936 21.5142 6.98396 21.6817C6.84861 21.8187 6.57449 22 5.92002 22H4.04002C3.44829 22 2.90011 21.7568 2.51385 21.3343C2.1377 20.9218 1.95601 20.371 2.00686 19.8188L2.00687 19.8187L2.56652 13.7324C2.56658 13.7318 2.56664 13.7312 2.5667 13.7305C2.64604 12.9135 2.78332 12.2676 3.15674 11.8112C3.49521 11.3975 4.1516 11 5.62002 11H18.38C19.8487 11 20.5079 11.3977 20.8476 11.8119C21.2215 12.2677 21.3591 12.9138 21.4331 13.7279ZM6.00002 16.5H9.00002C9.82424 16.5 10.5 15.8242 10.5 15C10.5 14.1758 9.82424 13.5 9.00002 13.5H6.00002C5.17581 13.5 4.50002 14.1758 4.50002 15C4.50002 15.8242 5.17581 16.5 6.00002 16.5ZM15 16.5H18C18.8242 16.5 19.5 15.8242 19.5 15C19.5 14.1758 18.8242 13.5 18 13.5H15C14.1758 13.5 13.5 14.1758 13.5 15C13.5 15.8242 14.1758 16.5 15 16.5Z" fill="#2D46C4" stroke="#2D46C4" stroke-width="1.5"/>
</svg>
