<svg width="16" height="16" viewBox="0 0 16 16" fill="none" xmlns="http://www.w3.org/2000/svg">
<path d="M2.08398 8C2.08398 4.74088 4.74153 2.08334 8.00065 2.08334C11.2598 2.08334 13.9173 4.74088 13.9173 8C13.9173 11.2591 11.2598 13.9167 8.00065 13.9167C4.74153 13.9167 2.08398 11.2591 2.08398 8ZM9.88732 11.1367C10.2022 11.1367 10.5229 11.0184 10.771 10.7703C11.2572 10.2841 11.2572 9.48923 10.771 9.00301L9.76798 8L10.771 6.997C11.2572 6.51077 11.2572 5.7159 10.771 5.22967C10.2848 4.74345 9.48988 4.74344 9.00366 5.22967L8.00065 6.23268L6.99765 5.22967C6.51142 4.74345 5.71655 4.74345 5.23032 5.22967C4.74409 5.7159 4.74409 6.51077 5.23032 6.997L6.23333 8L5.23032 9.00301C4.74409 9.48923 4.7441 10.2841 5.23032 10.7703C5.47839 11.0184 5.79914 11.1367 6.11398 11.1367C6.42883 11.1367 6.74958 11.0184 6.99765 10.7703L8.00065 9.76733L9.00365 10.7703C9.25172 11.0184 9.57247 11.1367 9.88732 11.1367Z" fill="#8D8D8D" stroke="#8D8D8D" stroke-width="1.5"/>
</svg>
