<svg width="28" height="28" viewBox="0 0 28 28" fill="none" xmlns="http://www.w3.org/2000/svg">
<rect width="28" height="28" rx="14" fill="white" fill-opacity="0.2"/>
<path d="M19.9954 18.195L18.926 18.4477C18.6862 18.5061 18.4982 18.6876 18.4463 18.9274L18.2195 19.8801C18.0963 20.3987 17.4352 20.5607 17.0917 20.1524L15.1537 17.9227C14.9982 17.7413 15.0824 17.4561 15.3158 17.3977C16.463 17.119 17.4936 16.4774 18.2519 15.5635C18.375 15.4144 18.5954 15.395 18.7315 15.5311L20.1704 16.97C20.663 17.4626 20.488 18.0783 19.9954 18.195Z" fill="white"/>
<path d="M7.97221 18.195L9.04166 18.4477C9.28147 18.5061 9.46943 18.6876 9.52129 18.9274L9.74814 19.8801C9.87129 20.3987 10.5324 20.5607 10.8759 20.1524L12.8139 17.9227C12.9694 17.7413 12.8852 17.4561 12.6518 17.3977C11.5046 17.119 10.4741 16.4774 9.71573 15.5635C9.59258 15.4144 9.37221 15.395 9.2361 15.5311L7.79721 16.97C7.30462 17.4626 7.47962 18.0783 7.97221 18.195Z" fill="white"/>
<path d="M14 7.51758C11.4917 7.51758 9.46301 9.54628 9.46301 12.0546C9.46301 12.9944 9.74172 13.8565 10.2213 14.5759C10.9213 15.6129 12.0297 16.3454 13.3195 16.5333C13.5399 16.5722 13.7667 16.5917 14 16.5917C14.2334 16.5917 14.4602 16.5722 14.6806 16.5333C15.9704 16.3454 17.0788 15.6129 17.7788 14.5759C18.2584 13.8565 18.5371 12.9944 18.5371 12.0546C18.5371 9.54628 16.5084 7.51758 14 7.51758ZM15.9834 11.912L15.4454 12.45C15.3547 12.5407 15.3028 12.7157 15.3352 12.8454L15.4908 13.5129C15.6139 14.0379 15.3352 14.2454 14.8686 13.9667L14.2204 13.5842C14.1038 13.5129 13.9093 13.5129 13.7926 13.5842L13.1445 13.9667C12.6778 14.2389 12.3991 14.0379 12.5223 13.5129L12.6778 12.8454C12.7038 12.7222 12.6584 12.5407 12.5676 12.45L12.0167 11.912C11.6991 11.5944 11.8028 11.2768 12.2436 11.2055L12.9371 11.0889C13.0538 11.0694 13.1899 10.9657 13.2417 10.862L13.6241 10.0972C13.8315 9.68239 14.1686 9.68239 14.376 10.0972L14.7584 10.862C14.8102 10.9657 14.9463 11.0694 15.0695 11.0889L15.763 11.2055C16.1973 11.2768 16.301 11.5944 15.9834 11.912Z" fill="white"/>
</svg>
