<svg width="40" height="40" viewBox="0 0 40 40" fill="none" xmlns="http://www.w3.org/2000/svg">
<path d="M36.0114 28.3306L36.0105 28.3286L30.7939 16.1286L30.7933 16.1273C29.894 14.0133 28.6627 13.0614 27.4615 12.9994L27.4611 12.9994C26.2777 12.9378 24.9442 13.759 23.8227 15.7809L23.822 15.7822L20.6558 21.4647C20.6557 21.4648 20.6557 21.4648 20.6556 21.4649C19.9119 22.8035 18.7749 23.7358 17.4158 23.8476C16.0347 23.9769 14.7606 23.2413 13.8104 22.0305L36.0114 28.3306ZM36.0114 28.3306C36.7951 30.1495 36.6165 32.2284 35.4962 33.8793L35.4962 33.8793L35.4911 33.887C34.3969 35.543 32.5489 36.5338 30.5668 36.5338H9.30014C7.24389 36.5338 5.36825 35.4854 4.28795 33.7392C3.21012 31.9969 3.11871 29.8563 4.038 28.0018C4.03824 28.0013 4.03847 28.0008 4.0387 28.0004L6.91963 22.2552C6.91977 22.2549 6.91991 22.2546 6.92005 22.2543C7.69228 20.7255 8.78681 19.9138 9.9581 19.7967C11.1411 19.6784 12.3772 20.2281 13.4454 21.566L13.8101 22.0301L36.0114 28.3306Z" fill="#2D46C4" stroke="#2D46C4" stroke-width="1.5"/>
<path d="M16.5002 8.33353C16.5002 11.0305 14.3138 13.2169 11.6168 13.2169C8.91983 13.2169 6.73349 11.0305 6.73349 8.33353C6.73349 5.63654 8.91983 3.4502 11.6168 3.4502C14.3138 3.4502 16.5002 5.63654 16.5002 8.33353Z" fill="#2D46C4" stroke="#2D46C4" stroke-width="1.5"/>
</svg>
