<svg width="25" height="24" viewBox="0 0 25 24" fill="none" xmlns="http://www.w3.org/2000/svg">
<path d="M20.29 4.21982C17.33 1.26982 12.53 1.26982 9.59 4.21982C7.52 6.26982 6.9 9.21982 7.7 11.8198L3 16.5198C2.67 16.8598 2.44 17.5298 2.51 18.0098L2.81 20.1898C2.92 20.9098 3.59 21.5898 4.31 21.6898L6.49 21.9898C6.97 22.0598 7.64 21.8398 7.98 21.4898L8.8 20.6698C9 20.4798 9 20.1598 8.8 19.9598L6.86 18.0198C6.57 17.7298 6.57 17.2498 6.86 16.9598C7.15 16.6698 7.63 16.6698 7.92 16.9598L9.87 18.9098C10.06 19.0998 10.38 19.0998 10.57 18.9098L12.69 16.7998C15.28 17.6098 18.23 16.9798 20.29 14.9298C23.24 11.9798 23.24 7.16982 20.29 4.21982ZM15 11.9998C13.62 11.9998 12.5 10.8798 12.5 9.49982C12.5 8.11982 13.62 6.99982 15 6.99982C16.38 6.99982 17.5 8.11982 17.5 9.49982C17.5 10.8798 16.38 11.9998 15 11.9998Z" fill="white"/>
</svg>
