<svg width="28" height="28" viewBox="0 0 28 28" fill="none" xmlns="http://www.w3.org/2000/svg">
<rect width="28" height="28" rx="14" fill="#2D46C4"/>
<g clip-path="url(#clip0_165_28973)">
<path d="M19.7467 11.6337C19.0467 8.55366 16.36 7.16699 14 7.16699C14 7.16699 14 7.16699 13.9933 7.16699C11.64 7.16699 8.94667 8.54699 8.24667 11.627C7.46667 15.067 9.57334 17.9803 11.48 19.8137C12.1867 20.4937 13.0933 20.8337 14 20.8337C14.9067 20.8337 15.8133 20.4937 16.5133 19.8137C18.42 17.9803 20.5267 15.0737 19.7467 11.6337ZM14 14.9737C12.84 14.9737 11.9 14.0337 11.9 12.8737C11.9 11.7137 12.84 10.7737 14 10.7737C15.16 10.7737 16.1 11.7137 16.1 12.8737C16.1 14.0337 15.16 14.9737 14 14.9737Z" fill="white"/>
</g>
<defs>
<clipPath id="clip0_165_28973">
<rect width="16" height="16" fill="white" transform="translate(6 6)"/>
</clipPath>
</defs>
</svg>
