<svg width="24" height="24" viewBox="0 0 24 24" fill="none" xmlns="http://www.w3.org/2000/svg">
<path d="M21.24 7.19766V7.2V16.8C21.24 18.2418 20.7926 19.3367 20.0597 20.0697C19.3267 20.8026 18.2318 21.25 16.79 21.25H14.2C12.7582 21.25 11.6633 20.8026 10.9303 20.0697C10.1974 19.3367 9.75 18.2418 9.75 16.8V13.5H11.6293L10.8397 14.2897C10.2568 14.8726 10.2568 15.8274 10.8397 16.4103C11.4226 16.9932 12.3774 16.9932 12.9603 16.4103L16.3103 13.0603C16.8932 12.4774 16.8932 11.5226 16.3103 10.9397L12.9603 7.58967C12.3774 7.00678 11.4226 7.00678 10.8397 7.58967C10.5416 7.88773 10.4 8.27182 10.4 8.65C10.4 9.02818 10.5416 9.41227 10.8397 9.71033L11.6293 10.5H9.75V7.2C9.75 5.75817 10.1974 4.66327 10.9303 3.93033C11.6633 3.19739 12.7582 2.75 14.2 2.75H16.8C18.242 2.75 19.3366 3.19745 20.0681 3.92996C20.7994 4.6623 21.2445 5.75641 21.24 7.19766Z" fill="#2D46C4" stroke="#2D46C4" stroke-width="1.5"/>
<mask id="path-2-inside-1_3018_3842" fill="white">
<path d="M2.75 11.25C2.34 11.25 2 11.59 2 12C2 12.41 2.34 12.75 2.75 12.75H9V11.25H2.75Z"/>
</mask>
<path d="M2.75 11.25C2.34 11.25 2 11.59 2 12C2 12.41 2.34 12.75 2.75 12.75H9V11.25H2.75Z" fill="#2D46C4"/>
<path d="M9 12.75V14.25H10.5V12.75H9ZM9 11.25H10.5V9.75H9V11.25ZM2.75 9.75C1.51157 9.75 0.5 10.7616 0.5 12H3.5C3.5 12.4184 3.16843 12.75 2.75 12.75V9.75ZM0.5 12C0.5 13.2384 1.51157 14.25 2.75 14.25V11.25C3.16843 11.25 3.5 11.5816 3.5 12H0.5ZM2.75 14.25H9V11.25H2.75V14.25ZM10.5 12.75V11.25H7.5V12.75H10.5ZM9 9.75H2.75V12.75H9V9.75Z" fill="#2D46C4" mask="url(#path-2-inside-1_3018_3842)"/>
</svg>
