<svg width="25" height="24" viewBox="0 0 25 24" fill="none" xmlns="http://www.w3.org/2000/svg">
<path d="M22.5 12.8595C22.5 15.1495 21.32 17.1795 19.5 18.4595L18.16 21.4095C17.85 22.0795 16.95 22.2095 16.48 21.6395L15 19.8595C13.14 19.8595 11.43 19.2295 10.13 18.1795L10.73 17.4695C15.35 17.1195 19 13.4595 19 8.99953C19 8.23953 18.89 7.48953 18.69 6.76953C20.96 7.96953 22.5 10.2495 22.5 12.8595Z" fill="#8D8D8D"/>
<path d="M16.8 6.07C15.63 3.67 13.02 2 10 2C5.86 2 2.5 5.13 2.5 9C2.5 11.29 3.68 13.32 5.5 14.6L6.84 17.55C7.15 18.22 8.05 18.34 8.52 17.78L9.07 17.12L10 16C14.14 16 17.5 12.87 17.5 9C17.5 7.95 17.25 6.96 16.8 6.07ZM12.5 9.75H7.5C7.09 9.75 6.75 9.41 6.75 9C6.75 8.59 7.09 8.25 7.5 8.25H12.5C12.91 8.25 13.25 8.59 13.25 9C13.25 9.41 12.91 9.75 12.5 9.75Z" fill="#8D8D8D"/>
</svg>
