<svg width="128" height="128" viewBox="0 0 128 128" fill="none" xmlns="http://www.w3.org/2000/svg">
<rect width="128" height="128" rx="24" fill="#E8EBFF"/>
<g clip-path="url(#clip0_335_66354)">
<path d="M60.5094 111.127C84.6091 111.127 104.146 91.5906 104.146 67.4909C104.146 43.3912 84.6091 23.8545 60.5094 23.8545C36.4097 23.8545 16.873 43.3912 16.873 67.4909C16.873 91.5906 36.4097 111.127 60.5094 111.127Z" fill="#E7EFFF"/>
<path d="M104.146 67.4909C104.146 76.1214 101.587 84.558 96.7917 91.734C91.9969 98.9099 85.1818 104.503 77.2083 107.806C69.2348 111.108 60.461 111.973 51.9964 110.289C43.5318 108.605 35.7565 104.449 29.6539 98.3465C23.5512 92.2438 19.3952 84.4686 17.7115 76.0039C16.0278 67.5393 16.892 58.7655 20.1947 50.792C23.4974 42.8185 29.0904 36.0034 36.2664 31.2086C43.4423 26.4138 51.879 23.8545 60.5094 23.8545C72.0825 23.8545 83.1816 28.4519 91.365 36.6353C99.5484 44.8187 104.146 55.9178 104.146 67.4909Z" fill="#7B8EF0"/>
<path d="M39.5635 22.1091C41.0095 22.1091 42.1817 20.9369 42.1817 19.4909C42.1817 18.0449 41.0095 16.8727 39.5635 16.8727C38.1175 16.8727 36.9453 18.0449 36.9453 19.4909C36.9453 20.9369 38.1175 22.1091 39.5635 22.1091Z" fill="#FFBE16"/>
<path d="M108.509 30.8364C109.955 30.8364 111.127 29.6642 111.127 28.2182C111.127 26.7722 109.955 25.6 108.509 25.6C107.063 25.6 105.891 26.7722 105.891 28.2182C105.891 29.6642 107.063 30.8364 108.509 30.8364Z" fill="#EBD512"/>
<path d="M95.419 111.127C96.8649 111.127 98.0371 109.955 98.0371 108.509C98.0371 107.063 96.8649 105.891 95.419 105.891C93.973 105.891 92.8008 107.063 92.8008 108.509C92.8008 109.955 93.973 111.127 95.419 111.127Z" fill="#D92037"/>
<path d="M19.4912 100.655C20.9372 100.655 22.1094 99.4823 22.1094 98.0364C22.1094 96.5904 20.9372 95.4182 19.4912 95.4182C18.0452 95.4182 16.873 96.5904 16.873 98.0364C16.873 99.4823 18.0452 100.655 19.4912 100.655Z" fill="#EBD512"/>
<path d="M100.655 50.0364C100.655 50.7307 100.379 51.3967 99.8883 51.8877C99.3973 52.3787 98.7314 52.6545 98.037 52.6545H91.9279C91.2335 52.6545 90.5676 52.9304 90.0766 53.4214C89.5856 53.9124 89.3097 54.5783 89.3097 55.2727V63.1273C89.3097 63.8217 89.0339 64.4876 88.5429 64.9786C88.0519 65.4696 87.3859 65.7454 86.6915 65.7454C85.9972 65.7454 85.3312 65.4696 84.8402 64.9786C84.3492 64.4876 84.0734 63.8217 84.0734 63.1273V55.2727C84.0734 54.5783 83.7975 53.9124 83.3065 53.4214C82.8155 52.9304 82.1496 52.6545 81.4552 52.6545H74.4734C73.779 52.6545 73.113 52.3787 72.622 51.8877C72.131 51.3967 71.8552 50.7307 71.8552 50.0364C71.8552 49.342 72.131 48.676 72.622 48.185C73.113 47.694 73.779 47.4182 74.4734 47.4182H78.4006C78.9793 47.4182 79.5342 47.1883 79.9434 46.7791C80.3526 46.37 80.5825 45.815 80.5825 45.2364C80.5825 44.6577 80.3526 44.1028 79.9434 43.6936C79.5342 43.2844 78.9793 43.0545 78.4006 43.0545H69.237C68.3112 43.0545 67.4232 42.6867 66.7686 42.0321C66.1139 41.3774 65.7461 40.4895 65.7461 39.5636C65.7461 38.6378 66.1139 37.7499 66.7686 37.0952C67.4232 36.4405 68.3112 36.0727 69.237 36.0727H97.1643C98.0901 36.0727 98.9781 36.4405 99.6327 37.0952C100.287 37.7499 100.655 38.6378 100.655 39.5636C100.655 40.4895 100.287 41.3774 99.6327 42.0321C98.9781 42.6867 98.0901 43.0545 97.1643 43.0545H94.1097C93.5311 43.0545 92.9761 43.2844 92.5669 43.6936C92.1578 44.1028 91.9279 44.6577 91.9279 45.2364C91.9279 45.815 92.1578 46.37 92.5669 46.7791C92.9761 47.1883 93.5311 47.4182 94.1097 47.4182H98.037C98.7314 47.4182 99.3973 47.694 99.8883 48.185C100.379 48.676 100.655 49.342 100.655 50.0364Z" fill="#2D46C4"/>
<path d="M98.0368 72.4742V93.6727H25.6004C19.9201 86.1275 16.856 76.9353 16.8731 67.4909C21.1058 65.2742 23.7066 44.4684 23.7764 43.9273C24.7581 42.4094 25.8306 40.9522 26.988 39.5636H51.6949C52.26 39.5641 52.8165 39.7018 53.3166 39.9648C53.8167 40.2277 54.2455 40.6082 54.5662 41.0735L72.7277 67.4909L95.6891 69.8647C96.3341 69.9317 96.9313 70.2357 97.365 70.7178C97.7987 71.1999 98.0381 71.8257 98.0368 72.4742Z" fill="#2D46C4"/>
<path d="M98.0375 73.6H90.183C89.219 73.6 88.4375 74.3815 88.4375 75.3455V80.5818C88.4375 81.5458 89.219 82.3273 90.183 82.3273H98.0375C99.0015 82.3273 99.783 81.5458 99.783 80.5818V75.3455C99.783 74.3815 99.0015 73.6 98.0375 73.6Z" fill="#FFBE16"/>
<path d="M100.654 95.4182V98.9091C100.654 99.372 100.47 99.816 100.143 100.143C99.8156 100.471 99.3716 100.655 98.9087 100.655H32.1538C29.721 98.5732 27.5232 96.232 25.5996 93.6727H98.9087C99.3716 93.6727 99.8156 93.8566 100.143 94.184C100.47 94.5113 100.654 94.9553 100.654 95.4182Z" fill="#FFBE16"/>
<path d="M56.1456 33.4545V36.0727H49.1638V39.5636H45.6729V36.0727H30.2344C31.1856 35.1564 32.1893 34.2749 33.2191 33.4545H56.1456Z" fill="#323FD4"/>
<path d="M66.6186 67.4909L51.4244 44.704C51.2653 44.4655 51.0499 44.2699 50.7972 44.1344C50.5445 43.9989 50.2624 43.9278 49.9757 43.9273H30.8367C30.3738 43.9273 29.9299 44.1112 29.6025 44.4385C29.2752 44.7658 29.0913 45.2098 29.0913 45.6727V65.7455C29.0913 66.2084 29.2752 66.6523 29.6025 66.9797C29.9299 67.307 30.3738 67.4909 30.8367 67.4909H66.6186ZM23.8549 43.9273V65.7455C23.8549 66.2084 23.671 66.6523 23.3437 66.9797C23.0164 67.307 22.5724 67.4909 22.1095 67.4909H16.8731C16.859 59.1358 19.256 50.954 23.7764 43.9273H23.8549Z" fill="white"/>
<path d="M30.8373 75.3455H36.0736C36.5365 75.3455 36.9805 75.1616 37.3078 74.8342C37.6352 74.5069 37.8191 74.0629 37.8191 73.6C37.8191 73.1371 37.6352 72.6931 37.3078 72.3658C36.9805 72.0384 36.5365 71.8545 36.0736 71.8545H30.8373C30.3743 71.8545 29.9304 72.0384 29.603 72.3658C29.2757 72.6931 29.0918 73.1371 29.0918 73.6C29.0918 74.0629 29.2757 74.5069 29.603 74.8342C29.9304 75.1616 30.3743 75.3455 30.8373 75.3455Z" fill="#8FA2FF"/>
<path d="M61.3822 108.509C68.1302 108.509 73.6004 103.039 73.6004 96.2909C73.6004 89.543 68.1302 84.0727 61.3822 84.0727C54.6343 84.0727 49.1641 89.543 49.1641 96.2909C49.1641 103.039 54.6343 108.509 61.3822 108.509Z" fill="#0A1860"/>
<path d="M61.3828 101.527C64.2748 101.527 66.6192 99.1829 66.6192 96.2909C66.6192 93.3989 64.2748 91.0545 61.3828 91.0545C58.4909 91.0545 56.1465 93.3989 56.1465 96.2909C56.1465 99.1829 58.4909 101.527 61.3828 101.527Z" fill="#4E6AFF"/>
<path d="M89.3086 87.5636H93.6722C94.1542 87.5636 94.5449 87.1729 94.5449 86.6909V84.9454C94.5449 84.4635 94.1542 84.0727 93.6722 84.0727H89.3086C88.8266 84.0727 88.4358 84.4635 88.4358 84.9454V86.6909C88.4358 87.1729 88.8266 87.5636 89.3086 87.5636Z" fill="white"/>
<path d="M66.6703 57.9433H63.1794C62.6974 57.9433 62.3066 58.334 62.3066 58.816V69.2887C62.3066 69.7707 62.6974 70.1615 63.1794 70.1615H66.6703C67.1523 70.1615 67.543 69.7707 67.543 69.2887V58.816C67.543 58.334 67.1523 57.9433 66.6703 57.9433Z" fill="#323FD4"/>
<path d="M65.7455 48.2909C66.7094 48.2909 67.4909 47.5094 67.4909 46.5455C67.4909 45.5815 66.7094 44.8 65.7455 44.8C64.7815 44.8 64 45.5815 64 46.5455C64 47.5094 64.7815 48.2909 65.7455 48.2909Z" fill="#A5BCED"/>
<path d="M94.5462 32.5818C95.5102 32.5818 96.2917 31.8004 96.2917 30.8364C96.2917 29.8724 95.5102 29.0909 94.5462 29.0909C93.5822 29.0909 92.8008 29.8724 92.8008 30.8364C92.8008 31.8004 93.5822 32.5818 94.5462 32.5818Z" fill="#A5BCED"/>
<path d="M98.0368 65.7455C98.5188 65.7455 98.9095 65.3547 98.9095 64.8727C98.9095 64.3907 98.5188 64 98.0368 64C97.5548 64 97.1641 64.3907 97.1641 64.8727C97.1641 65.3547 97.5548 65.7455 98.0368 65.7455Z" fill="#A5BCED"/>
<path d="M37.7137 43.9273H20.4686C19.8301 43.9266 19.2032 43.7558 18.6525 43.4326C18.1017 43.1093 17.6471 42.6452 17.3351 42.088C17.0232 41.5308 16.8653 40.9006 16.8776 40.2621C16.89 39.6237 17.0721 39 17.4054 38.4553L25.6875 24.8931C26.0454 24.312 26.546 23.8321 27.1418 23.4993C27.7376 23.1664 28.4087 22.9917 29.0912 22.9917C29.7736 22.9917 30.4447 23.1664 31.0405 23.4993C31.6363 23.8321 32.137 24.312 32.4948 24.8931L40.7857 38.4553C41.1164 39.0011 41.2963 39.625 41.3069 40.2632C41.3174 40.9013 41.1584 41.5309 40.8459 42.0874C40.5335 42.6439 40.0789 43.1075 39.5286 43.4308C38.9782 43.754 38.352 43.9254 37.7137 43.9273Z" fill="#D92037"/>
<path d="M29.0916 35.2C28.851 35.1992 28.6192 35.1098 28.4404 34.9488C28.2617 34.7877 28.1486 34.5665 28.1229 34.3273L27.5381 29.0909C27.5122 28.8716 27.5331 28.6494 27.5994 28.4388C27.6656 28.2282 27.7758 28.034 27.9226 27.8691C28.0694 27.7041 28.2494 27.5722 28.451 27.4819C28.6525 27.3917 28.8708 27.3452 29.0916 27.3455C29.3124 27.3452 29.5307 27.3917 29.7322 27.4819C29.9337 27.5722 30.1138 27.7041 30.2606 27.8691C30.4074 28.034 30.5175 28.2282 30.5838 28.4388C30.6501 28.6494 30.6709 28.8716 30.645 29.0909L30.0603 34.3273C30.0345 34.5665 29.9215 34.7877 29.7427 34.9488C29.564 35.1098 29.3322 35.1992 29.0916 35.2Z" fill="white"/>
<path d="M29.0912 40.4364C30.0551 40.4364 30.8366 39.6549 30.8366 38.6909C30.8366 37.7269 30.0551 36.9455 29.0912 36.9455C28.1272 36.9455 27.3457 37.7269 27.3457 38.6909C27.3457 39.6549 28.1272 40.4364 29.0912 40.4364Z" fill="white"/>
</g>
<defs>
<clipPath id="clip0_335_66354">
<rect width="96" height="96" fill="white" transform="translate(16 16)"/>
</clipPath>
</defs>
</svg>
