<svg width="24" height="24" viewBox="0 0 24 24" fill="none" xmlns="http://www.w3.org/2000/svg">
<path fill-rule="evenodd" clip-rule="evenodd" d="M4.14403 12.0015C4.14403 6.95154 8.31403 2.86154 13.404 3.00154C18.094 3.13154 22.014 7.05154 22.144 11.7415C22.284 16.8315 18.194 21.0015 13.144 21.0015C11.534 21.0015 10.034 20.5715 8.72403 19.8415C8.15403 19.5215 8.06403 18.7315 8.52403 18.2715C8.83403 17.9515 9.31403 17.8715 9.70403 18.0915C10.724 18.6615 11.894 19.0015 13.144 19.0015C17.044 19.0015 20.194 15.8115 20.144 11.9015C20.094 8.18154 16.964 5.05154 13.244 5.00154C9.32403 4.95154 6.14403 8.10154 6.14403 12.0015H7.93403C8.38403 12.0015 8.60403 12.5415 8.29403 12.8515L5.50403 15.6415C5.30403 15.8415 4.99403 15.8415 4.79403 15.6415L2.00403 12.8515C1.68403 12.5415 1.90403 12.0015 2.35403 12.0015H4.14403ZM13.144 10.0015C14.244 10.0015 15.144 10.9015 15.144 12.0015C15.144 13.1015 14.244 14.0015 13.144 14.0015C12.044 14.0015 11.144 13.1015 11.144 12.0015C11.144 10.9015 12.044 10.0015 13.144 10.0015Z" fill="#8D8D8D"/>
</svg>
