<svg width="180" height="180" viewBox="0 0 180 180" fill="none" xmlns="http://www.w3.org/2000/svg">
<g clip-path="url(#clip0_2978_1328)">
<g opacity="0.652043">
<path d="M33.6809 146.314C32.3791 145.013 32.3791 142.902 33.6809 141.6C34.9827 140.298 37.0931 140.298 38.3949 141.6C39.6967 142.902 39.6967 145.013 38.3949 146.314C37.0931 147.616 34.9827 147.616 33.6809 146.314Z" fill="#48D5C6"/>
</g>
<g opacity="0.652043">
<path d="M146.318 146.317C145.016 147.619 142.906 147.619 141.604 146.317C140.302 145.015 140.302 142.905 141.604 141.603C142.906 140.301 145.016 140.301 146.318 141.603C147.62 142.905 147.62 145.015 146.318 146.317Z" fill="#4CC9F0"/>
</g>
<g opacity="0.652043">
<path d="M148.622 31.3712C149.924 32.673 149.924 34.7835 148.622 36.0853C147.32 37.3871 145.21 37.3871 143.908 36.0853C142.606 34.7835 142.606 32.673 143.908 31.3712C145.21 30.0695 147.32 30.0695 148.622 31.3712Z" fill="#B190FF"/>
</g>
<g opacity="0.652043">
<path d="M146.318 146.317C145.016 147.619 142.906 147.619 141.604 146.317C140.302 145.015 140.302 142.905 141.604 141.603C142.906 140.301 145.016 140.301 146.318 141.603C147.62 142.905 147.62 145.015 146.318 146.317Z" fill="#0074E8"/>
</g>
<g opacity="0.652043">
<path d="M33.682 33.6802C34.9838 32.3784 37.0943 32.3784 38.3961 33.6802C39.6979 34.982 39.6979 37.0925 38.3961 38.3943C37.0943 39.696 34.9838 39.696 33.682 38.3943C32.3803 37.0925 32.3803 34.982 33.682 33.6802Z" fill="#27AE60"/>
</g>
<g opacity="0.0806054">
<path d="M89.9987 170.51C88.1577 170.51 86.6654 169.018 86.6654 167.177C86.6654 165.336 88.1577 163.843 89.9987 163.843C91.8397 163.843 93.332 165.336 93.332 167.177C93.332 169.018 91.8397 170.51 89.9987 170.51Z" fill="#48D5C6"/>
</g>
<g opacity="0.0806054">
<path d="M170.512 90.001C170.512 91.842 169.02 93.3344 167.179 93.3344C165.338 93.3344 163.846 91.842 163.846 90.001C163.846 88.16 165.338 86.6677 167.179 86.6677C169.02 86.6677 170.512 88.16 170.512 90.001Z" fill="#4CC9F0"/>
</g>
<g opacity="0.0806054">
<path d="M89.9993 6.16512C91.8403 6.16512 93.3327 7.65745 93.3327 9.49845C93.3327 11.3395 91.8403 12.8318 89.9993 12.8318C88.1583 12.8318 86.666 11.3395 86.666 9.49845C86.666 7.65745 88.1583 6.16512 89.9993 6.16512Z" fill="#B190FF"/>
</g>
<g opacity="0.0806054">
<path d="M170.512 90.001C170.512 91.842 169.02 93.3344 167.179 93.3344C165.338 93.3344 163.846 91.842 163.846 90.001C163.846 88.16 165.338 86.6677 167.179 86.6677C169.02 86.6677 170.512 88.16 170.512 90.001Z" fill="#0074E8"/>
</g>
<g opacity="0.0806054">
<path d="M9.48568 90.0008C9.48568 88.1598 10.978 86.6674 12.819 86.6674C14.66 86.6674 16.1523 88.1598 16.1523 90.0008C16.1523 91.8418 14.66 93.3341 12.819 93.3341C10.978 93.3341 9.48568 91.8418 9.48568 90.0008Z" fill="#27AE60"/>
</g>
<path d="M66.5442 146.626C65.1835 146.062 64.5374 144.502 65.101 143.142C65.6646 141.781 67.2245 141.135 68.5851 141.699C69.9458 142.262 70.592 143.822 70.0283 145.183C69.4647 146.543 67.9049 147.19 66.5442 146.626Z" fill="#48D5C6"/>
<path d="M146.626 113.452C146.062 114.813 144.502 115.459 143.141 114.896C141.781 114.332 141.135 112.772 141.698 111.411C142.262 110.051 143.822 109.405 145.182 109.968C146.543 110.532 147.189 112.092 146.626 113.452Z" fill="#4CC9F0"/>
<path d="M114.382 31.1347C115.742 31.6983 116.388 33.2582 115.825 34.6189C115.261 35.9796 113.701 36.6257 112.341 36.0621C110.98 35.4985 110.334 33.9386 110.897 32.5779C111.461 31.2172 113.021 30.5711 114.382 31.1347Z" fill="#B190FF"/>
<path d="M146.626 113.452C146.062 114.813 144.502 115.459 143.141 114.896C141.781 114.332 141.135 112.772 141.698 111.411C142.262 110.051 143.822 109.405 145.182 109.968C146.543 110.532 147.189 112.092 146.626 113.452Z" fill="#0074E8"/>
<path d="M33.3724 66.5444C33.936 65.1837 35.4959 64.5376 36.8566 65.1012C38.2173 65.6648 38.8634 67.2247 38.2998 68.5854C37.7362 69.9461 36.1763 70.5922 34.8156 70.0286C33.4549 69.4649 32.8088 67.9051 33.3724 66.5444Z" fill="#27AE60"/>
<path d="M36.4623 112.174C35.8987 110.813 36.5448 109.254 37.9055 108.69C39.2662 108.126 40.8261 108.772 41.3897 110.133C41.9533 111.494 41.3072 113.054 39.9465 113.617C38.5858 114.181 37.0259 113.535 36.4623 112.174Z" fill="#48D5C6"/>
<path d="M112.175 143.534C110.814 144.097 109.254 143.451 108.691 142.09C108.127 140.73 108.773 139.17 110.134 138.606C111.495 138.043 113.055 138.689 113.618 140.049C114.182 141.41 113.536 142.97 112.175 143.534Z" fill="#4CC9F0"/>
<path d="M145.536 66.9928C146.099 68.3535 145.453 69.9134 144.093 70.477C142.732 71.0406 141.172 70.3945 140.608 69.0338C140.045 67.6731 140.691 66.1133 142.052 65.5497C143.412 64.986 144.972 65.6322 145.536 66.9928Z" fill="#B190FF"/>
<path d="M112.175 143.534C110.814 144.097 109.254 143.451 108.691 142.09C108.127 140.73 108.773 139.17 110.134 138.606C111.495 138.043 113.055 138.689 113.618 140.049C114.182 141.41 113.536 142.97 112.175 143.534Z" fill="#0074E8"/>
<path d="M67.8231 36.4631C69.1838 35.8995 70.7436 36.5456 71.3073 37.9063C71.8709 39.267 71.2248 40.8269 69.8641 41.3905C68.5034 41.9541 66.9435 41.308 66.3799 39.9473C65.8163 38.5866 66.4624 37.0267 67.8231 36.4631Z" fill="#27AE60"/>
<path d="M93.8113 62.9279C95.4301 64.9306 98.0773 65.7907 100.564 65.1221C104.567 64.0459 108.542 66.9344 108.756 71.0737C108.888 73.6454 110.524 75.8974 112.929 76.8181C116.8 78.3002 118.319 82.9739 116.058 86.4481C114.654 88.6066 114.654 91.3901 116.058 93.5486C118.319 97.0227 116.8 101.696 112.929 103.178C110.524 104.099 108.888 106.351 108.756 108.923C108.542 113.062 104.567 115.951 100.564 114.874C98.0773 114.206 95.4301 115.066 93.8113 117.069C91.2058 120.292 86.2914 120.292 83.6858 117.069C82.0669 115.066 79.4194 114.206 76.9326 114.874C72.9301 115.951 68.9544 113.062 68.7411 108.923C68.6086 106.351 66.9724 104.099 64.5676 103.178C60.6969 101.696 59.1783 97.0227 61.4386 93.5486C62.8431 91.3901 62.8431 88.6066 61.4386 86.4481C59.1783 82.9739 60.6969 78.3002 64.5676 76.8181C66.9724 75.8974 68.6086 73.6454 68.7411 71.0737C68.9544 66.9344 72.9301 64.0459 76.9326 65.1221C79.4194 65.7907 82.0669 64.9306 83.6858 62.9279C86.2914 59.7046 91.2058 59.7046 93.8113 62.9279Z" fill="#27AE60"/>
<path d="M76.332 88.1617L85.1654 96.9951L100.915 81.2451" stroke="white" stroke-width="1.33333" stroke-linecap="round"/>
</g>
<defs>
<clipPath id="clip0_2978_1328">
<rect width="180" height="180" fill="white"/>
</clipPath>
</defs>
</svg>
