<svg width="321" height="238" viewBox="0 0 321 238" fill="none" xmlns="http://www.w3.org/2000/svg">
<g clip-path="url(#clip0_5_4908)">
<path opacity="0.18" d="M116.352 17.363C107.916 25.2044 101.663 35.2838 92.6996 42.4959C77.5428 54.7139 56.9711 57.1432 39.1466 64.9208C27.3562 70.0661 16.1772 78.218 10.9609 90.0099C6.733 99.5398 7.28084 110.834 11.6596 120.276C13.7513 124.803 14.6808 129.783 14.3632 134.763C14.0456 139.743 12.4911 144.563 9.84137 148.786C3.35071 159.101 -0.563538 170.884 0.0676644 182.987C1.04424 201.601 15.1331 219.963 33.6365 221.676C39.9882 222.265 46.3717 220.971 52.6599 219.816C90.6392 212.847 130.838 211.047 166.963 224.703C176.864 228.446 186.395 233.324 196.689 235.786C208.714 238.661 221.25 238.115 233.608 237.554C252.894 236.678 275.395 233.97 285.244 217.307C298.896 194.209 277.15 165.373 280.242 138.707C281.953 123.972 291.215 111.013 293.168 96.322C295.288 80.3526 287.741 63.4712 274.442 54.4391C255.974 41.8986 230.437 44.9411 211.37 33.3324C196.284 24.145 185.915 6.1924 168.13 1.30599C150.687 -3.48085 129.047 5.55521 116.352 17.363Z" fill="#68E1FD"/>
<path d="M36.0936 177.778C34.2278 164.927 29.7776 152.554 27.9753 139.691C26.173 126.827 27.4275 112.682 35.6411 102.634C41.0003 96.0913 48.7018 92.0093 56.2326 88.1822C62.9297 84.7773 69.8252 81.3843 77.2726 80.4603C83.8387 79.6639 90.4644 80.7989 97.0304 81.5874C109.385 83.0688 121.965 83.264 134.228 81.1533C150.238 78.3935 165.375 72.0177 181.02 67.6808C196.348 63.4356 211.52 61.2732 228.658 69.2738C240.504 74.8093 249.245 86.3662 252.08 99.1418C256.661 119.783 246.316 142.657 255.014 161.916C257.467 167.34 261.278 172.016 264.39 177.089C268.216 183.344 270.977 190.195 272.56 197.36C273.104 199.825 273.505 202.425 272.81 204.851C271.024 211.063 263.37 213.13 256.931 213.64C235.522 215.336 214.132 211.33 192.779 209C158.114 205.225 123.136 205.89 88.412 208.49C79.9112 209.128 71.4185 209.871 62.9336 210.721C56.0857 211.394 43.0845 215.499 36.6296 213.544C29.4323 211.358 34.1564 206.623 35.6808 199.825C37.3203 192.629 37.1496 185.042 36.0936 177.778Z" fill="url(#paint0_linear_5_4908)"/>
<path d="M152.437 54.6305C152.437 54.6305 149.154 68.0193 144.248 71.7548C139.182 75.6098 133.926 68.2025 133.926 68.2025L131.004 73.5071C131.004 73.5071 136.415 82.2684 141.87 82.4715C147.324 82.6746 152.112 77.7762 152.112 77.7762L152.437 54.6305Z" fill="#68E1FD"/>
<path d="M124.402 45.4352L125.145 45.1046L140.278 48.9636L144.823 79.7077H144.256L124.402 45.4352Z" fill="#3F3D56"/>
<path opacity="0.05" d="M52.8185 211.326C52.8185 211.326 19.8094 213.544 15.0615 216.718C10.3136 219.892 47.495 220.589 106.824 218.801C166.153 217.013 211.834 218.801 244.18 222.074C276.526 225.348 320.401 224.715 321.008 216.698C321.615 208.682 240.917 208.586 240.917 208.586L52.8185 211.326Z" fill="#000405"/>
<path d="M258.031 147.512C258.031 147.512 256.923 156.759 249.801 157.667H218.527L214.077 106.31H247.026C249.686 106.31 255.137 109.185 256.224 113.255C256.371 114.009 256.467 114.771 256.514 115.537C257.229 123.434 258.031 147.512 258.031 147.512Z" fill="#68E1FD"/>
<path d="M256.522 115.545H226.351L217.396 106.728L216.983 106.31H247.034C249.694 106.31 255.145 109.185 256.232 113.255C256.379 114.011 256.476 114.776 256.522 115.545Z" fill="url(#paint1_linear_5_4908)"/>
<path d="M56.8558 111.089L53.9102 109.803C53.5269 109.635 53.2127 109.341 53.0205 108.968C52.8284 108.596 52.7701 108.168 52.8554 107.758C52.9407 107.347 53.1644 106.979 53.4888 106.714C53.8133 106.45 54.2187 106.306 54.6367 106.306H214.077C216.046 106.288 217.995 106.715 219.777 107.556C221.559 108.397 223.129 109.631 224.37 111.165C225.405 112.424 226.09 113.935 226.355 115.545C227.074 120.352 226.633 141.287 226.435 149.149C226.328 153.418 223.191 157.094 218.968 157.623L218.515 157.667H64.0888L56.8558 111.089Z" fill="#68E1FD"/>
<path d="M56.8558 111.089L53.9102 109.803C53.5269 109.635 53.2127 109.341 53.0205 108.968C52.8284 108.596 52.7701 108.168 52.8554 107.758C52.9407 107.347 53.1644 106.979 53.4888 106.714C53.8133 106.45 54.2187 106.306 54.6367 106.306H214.077C216.046 106.288 217.995 106.715 219.777 107.556C221.559 108.397 223.129 109.631 224.37 111.165C225.405 112.424 226.09 113.935 226.355 115.545C227.074 120.352 226.633 141.287 226.435 149.149C226.328 153.418 223.191 157.094 218.968 157.623L218.515 157.667H64.0888L56.8558 111.089Z" fill="#68E1FD"/>
<path d="M226.447 149.149C226.34 153.418 223.203 157.094 218.979 157.623L218.527 157.667H64.1007L56.8558 111.089L53.9102 109.803C53.5269 109.635 53.2127 109.341 53.0205 108.968C52.8284 108.596 52.7701 108.168 52.8554 107.758C52.9407 107.347 53.1644 106.979 53.4888 106.714C53.8133 106.45 54.2187 106.306 54.6367 106.306H214.077C216.046 106.288 217.995 106.715 219.777 107.556C221.559 108.397 223.129 109.631 224.37 111.165C225.405 112.424 226.09 113.935 226.355 115.545C227.086 120.352 226.645 141.287 226.447 149.149Z" fill="url(#paint2_linear_5_4908)"/>
<path opacity="0.61" d="M48.8606 157.683H219.087C219.676 157.683 220.24 157.449 220.657 157.031C221.074 156.614 221.309 156.048 221.31 155.457C221.31 154.865 221.076 154.298 220.659 153.88C220.242 153.462 219.676 153.227 219.087 153.227H48.8606C48.271 153.227 47.7056 153.462 47.2886 153.88C46.8717 154.298 46.6375 154.865 46.6375 155.457C46.6386 156.048 46.8732 156.614 47.29 157.031C47.7068 157.449 48.2717 157.683 48.8606 157.683Z" fill="url(#paint3_linear_5_4908)"/>
<path d="M48.8606 157.683H219.087C219.676 157.683 220.24 157.449 220.657 157.031C221.074 156.614 221.309 156.048 221.31 155.457C221.31 155.164 221.252 154.874 221.141 154.603C221.029 154.333 220.865 154.087 220.659 153.88C220.452 153.673 220.207 153.509 219.937 153.396C219.668 153.284 219.379 153.227 219.087 153.227H48.8606C48.271 153.227 47.7056 153.462 47.2886 153.88C46.8717 154.298 46.6375 154.865 46.6375 155.457C46.6386 156.048 46.8732 156.614 47.29 157.031C47.7068 157.449 48.2717 157.683 48.8606 157.683ZM254.017 172.314V200.171C254.018 201.971 253.665 203.753 252.979 205.417C252.292 207.08 251.286 208.591 250.018 209.864C248.749 211.136 247.243 212.146 245.585 212.835C243.928 213.524 242.151 213.879 240.357 213.879H60.7621C58.9672 213.881 57.1894 213.528 55.5306 212.84C53.8718 212.152 52.3648 211.143 51.0957 209.869C49.8267 208.596 48.8207 207.084 48.1353 205.42C47.45 203.755 47.0988 201.972 47.102 200.171V172.314C47.0992 169.783 47.8003 167.3 49.1266 165.146C49.4163 164.669 49.7372 164.211 50.0873 163.776C51.3651 162.166 52.9887 160.866 54.837 159.973C56.6853 159.08 58.7107 158.617 60.7621 158.619H240.357C242.152 158.619 243.929 158.974 245.586 159.663C247.244 160.352 248.75 161.362 250.019 162.635C251.288 163.909 252.294 165.42 252.98 167.084C253.666 168.747 254.018 170.53 254.017 172.33V172.314Z" fill="#68E1FD"/>
<path opacity="0.61" d="M184.081 213.879H60.7621C58.143 213.88 55.5788 213.125 53.3751 211.705C51.1714 210.285 49.4211 208.26 48.3326 205.87H176.236C176.236 205.87 178.078 212.64 184.081 213.879Z" fill="url(#paint4_linear_5_4908)"/>
<path d="M184.081 158.603C178.412 159.543 176.828 165.13 176.828 165.13H49.1266L50.0873 163.76C51.3651 162.15 52.9887 160.85 54.837 159.957C56.6853 159.064 58.7107 158.601 60.7621 158.603H184.081Z" fill="url(#paint5_linear_5_4908)"/>
<path opacity="0.61" d="M254.017 172.314V200.171C254.019 202.623 253.365 205.03 252.122 207.142C250.88 209.253 249.095 210.991 246.955 212.174H190.548C189.421 212.175 188.306 211.953 187.265 211.521C186.224 211.088 185.278 210.455 184.482 209.656C183.685 208.857 183.053 207.909 182.622 206.865C182.191 205.821 181.969 204.702 181.969 203.572V169.774C181.968 168.643 182.19 167.524 182.621 166.48C183.052 165.435 183.684 164.486 184.48 163.687C185.277 162.888 186.223 162.254 187.264 161.822C188.305 161.389 189.421 161.167 190.548 161.168H248.313C250.079 162.437 251.517 164.11 252.51 166.048C253.502 167.987 254.019 170.135 254.017 172.314Z" fill="url(#paint6_linear_5_4908)"/>
<path d="M254.017 172.314V200.171C254.017 200.685 253.99 201.198 253.934 201.708C253.91 201.931 253.878 202.15 253.842 202.369C253.694 203.324 253.441 204.259 253.088 205.157C253.005 205.384 252.914 205.603 252.81 205.822C252.368 206.815 251.808 207.751 251.143 208.61C250.968 208.833 250.786 209.056 250.591 209.271C249.556 210.449 248.326 211.439 246.955 212.198H198.654C197.434 212.2 196.228 211.94 195.116 211.435C194.005 210.93 193.014 210.192 192.211 209.271C192.025 209.06 191.85 208.839 191.687 208.61C191.082 207.77 190.636 206.825 190.373 205.822C190.313 205.607 190.266 205.384 190.226 205.157C190.127 204.639 190.078 204.112 190.079 203.584V169.774C190.078 169.171 190.142 168.57 190.27 167.981C190.31 167.758 190.364 167.537 190.432 167.32C190.726 166.311 191.205 165.365 191.846 164.533C192.019 164.302 192.206 164.081 192.405 163.872C193.205 163.013 194.173 162.328 195.248 161.861C196.323 161.394 197.482 161.154 198.654 161.156H248.313C249.376 161.92 250.324 162.835 251.127 163.872C251.294 164.087 251.457 164.306 251.611 164.533C252.209 165.4 252.702 166.336 253.08 167.32C253.168 167.539 253.251 167.762 253.318 167.981C253.624 168.885 253.829 169.82 253.93 170.769C253.958 170.988 253.977 171.211 253.989 171.434C254.009 171.713 254.017 172.02 254.017 172.314Z" fill="url(#paint7_linear_5_4908)"/>
<path d="M251.611 164.545H191.846C192.019 164.313 192.206 164.093 192.405 163.884H251.123C251.294 164.099 251.457 164.318 251.611 164.545ZM253.318 167.981H190.27C190.31 167.758 190.364 167.537 190.432 167.32H253.08C253.168 167.539 253.251 167.762 253.318 167.981ZM253.989 171.422H190.075V170.757H253.93C253.958 170.976 253.977 171.199 253.989 171.422ZM190.079 174.198H254.021V174.859H190.079V174.198ZM190.079 177.635H254.021V178.296H190.079V177.635ZM190.079 181.076H254.021V181.737H190.079V181.076ZM190.079 184.516H254.021V185.174H190.079V184.516ZM190.079 187.953H254.021V188.61H190.079V187.953ZM190.079 191.394H254.021V192.051H190.079V191.394ZM190.079 194.831H254.021V195.488H190.079V194.831ZM190.079 198.272H254.021V198.933H190.079V198.272ZM253.934 201.708C253.91 201.931 253.878 202.15 253.842 202.369H190.079V201.708H253.934ZM253.108 205.145C253.025 205.372 252.933 205.591 252.83 205.81H190.385C190.325 205.595 190.278 205.372 190.238 205.145H253.108ZM251.143 208.586C250.968 208.809 250.786 209.032 250.591 209.247H192.211C192.025 209.036 191.85 208.815 191.687 208.586H251.143Z" fill="white"/>
<path d="M174.775 152.179H215.466C213.741 153.044 211.837 153.492 209.908 153.486H58.6105C56.1061 153.503 53.6576 152.743 51.5998 151.311C51.0173 150.908 50.4761 150.448 49.9841 149.937C49.8253 149.774 49.6704 149.603 49.5236 149.431C48.9696 148.782 48.4976 148.066 48.1182 147.301C48.0349 147.134 47.9555 146.962 47.884 146.795C47.5889 146.113 47.3757 145.397 47.2488 144.665C47.2211 144.497 47.1933 144.33 47.1734 144.155C47.1256 143.765 47.1017 143.373 47.102 142.98V121.61C47.102 121.379 47.102 121.152 47.1258 120.929C47.1496 120.706 47.1536 120.591 47.1734 120.424C47.2617 119.696 47.4336 118.981 47.6855 118.293C47.749 118.122 47.8165 117.955 47.888 117.783C48.2119 117.026 48.6279 116.312 49.1266 115.657C49.2576 115.486 49.3925 115.314 49.5236 115.147C49.8167 114.804 50.1309 114.479 50.4644 114.175C52.7021 112.165 55.6068 111.065 58.6105 111.089H209.908C212.286 111.086 214.613 111.778 216.606 113.08H174.775C174.139 113.079 173.504 113.157 172.886 113.311C171.617 113.615 170.452 114.253 169.512 115.159C169.343 115.318 169.185 115.488 169.039 115.669C168.508 116.293 168.104 117.016 167.848 117.795C167.792 117.962 167.746 118.133 167.709 118.305C167.602 118.755 167.548 119.216 167.55 119.679V145.592C167.552 145.994 167.593 146.394 167.673 146.787C167.706 146.958 167.748 147.127 167.801 147.293C168.027 148.068 168.402 148.792 168.904 149.424C169.041 149.6 169.188 149.769 169.345 149.929C170.026 150.637 170.847 151.196 171.754 151.57C172.71 151.975 173.738 152.182 174.775 152.179Z" fill="#68E1FD"/>
<path d="M221.413 121.766V143.386C221.413 143.506 221.413 143.633 221.389 143.753C221.365 143.872 221.369 143.996 221.357 144.115C221.345 144.234 221.326 144.338 221.314 144.446C221.302 144.553 221.286 144.617 221.27 144.7C221.266 144.743 221.258 144.786 221.246 144.828C221.226 144.943 221.203 145.063 221.175 145.178C221.147 145.294 221.139 145.33 221.115 145.405C221.091 145.481 221.08 145.553 221.056 145.628C221.032 145.704 221.012 145.788 220.988 145.867L220.905 146.11C220.905 146.178 220.865 146.242 220.841 146.305C220.817 146.369 220.778 146.477 220.742 146.56L220.635 146.819C220.618 146.867 220.597 146.914 220.571 146.958C220.546 147.025 220.517 147.09 220.484 147.154C220.46 147.209 220.428 147.265 220.401 147.321C220.373 147.377 220.317 147.492 220.27 147.572C220.222 147.651 220.135 147.831 220.059 147.97L219.936 148.169C219.825 148.352 219.71 148.527 219.587 148.699C219.523 148.79 219.46 148.874 219.396 148.958C219.269 149.129 219.134 149.292 218.999 149.455C218.864 149.619 218.698 149.798 218.535 149.961C218.209 150.295 217.863 150.607 217.499 150.897C217.491 150.907 217.482 150.915 217.471 150.921C217.352 151.016 217.233 151.104 217.11 151.196L216.713 151.47L216.316 151.725C216.189 151.805 216.062 151.877 215.919 151.952L215.462 152.195H174.775C173.739 152.199 172.711 151.994 171.754 151.594C170.848 151.221 170.028 150.665 169.345 149.961C169.188 149.801 169.041 149.632 168.904 149.455C168.401 148.829 168.026 148.109 167.8 147.337C167.748 147.172 167.705 147.005 167.673 146.835C167.593 146.442 167.552 146.042 167.55 145.64V119.826C167.549 119.366 167.602 118.908 167.709 118.46C167.746 118.289 167.792 118.12 167.848 117.955C168.104 117.179 168.508 116.46 169.039 115.84C169.185 115.66 169.343 115.489 169.511 115.33C170.455 114.429 171.619 113.795 172.886 113.49C173.504 113.339 174.139 113.263 174.775 113.263H216.606C216.788 113.383 216.971 113.506 217.145 113.638L217.348 113.789C217.624 113.995 217.889 114.216 218.142 114.45L218.36 114.657L218.519 114.816L218.733 115.04L218.948 115.278L218.991 115.33L219.023 115.37C219.15 115.521 219.277 115.681 219.396 115.84C219.46 115.92 219.519 116.003 219.579 116.083C219.585 116.095 219.593 116.106 219.603 116.115C219.709 116.269 219.812 116.424 219.912 116.581L220.083 116.859C220.186 117.035 220.286 117.218 220.377 117.397C220.421 117.493 220.468 117.58 220.512 117.672C220.555 117.763 220.599 117.863 220.635 117.955C220.671 118.046 220.71 118.122 220.742 118.21C220.774 118.297 220.81 118.377 220.837 118.46C220.865 118.544 220.897 118.628 220.925 118.711C221.045 119.056 221.142 119.409 221.214 119.767C221.227 119.812 221.236 119.859 221.242 119.906C221.242 119.99 221.274 120.073 221.29 120.157C221.306 120.241 221.334 120.44 221.353 120.579C221.373 120.718 221.393 120.914 221.401 121.085V121.356C221.401 121.447 221.413 121.626 221.413 121.766Z" fill="url(#paint8_linear_5_4908)"/>
<path d="M171.754 151.574C170.857 151.792 169.931 151.994 168.976 152.179H61.1035C57.9151 152.198 54.7324 151.907 51.5998 151.311C51.0173 150.908 50.4761 150.448 49.9841 149.937C49.8253 149.774 49.6704 149.603 49.5236 149.431C48.9696 148.782 48.4976 148.066 48.1182 147.301C48.0349 147.134 47.9555 146.962 47.884 146.795C47.5889 146.113 47.3757 145.397 47.2488 144.665C47.2211 144.497 47.1933 144.33 47.1734 144.155C47.1256 143.765 47.1017 143.373 47.102 142.98V121.61C47.102 121.379 47.102 121.152 47.1258 120.929C47.1496 120.706 47.1536 120.591 47.1734 120.424C47.2617 119.696 47.4336 118.981 47.6855 118.293C47.749 118.122 47.8165 117.955 47.888 117.783C48.2119 117.026 48.6279 116.312 49.1266 115.657C49.2576 115.486 49.3925 115.314 49.5236 115.147C49.8167 114.804 50.1309 114.479 50.4644 114.175C53.9598 113.419 57.5278 113.051 61.1035 113.08H171.997L172.886 113.311C171.617 113.615 170.452 114.253 169.511 115.159C169.343 115.318 169.185 115.488 169.039 115.669C168.508 116.293 168.104 117.016 167.848 117.795C167.792 117.962 167.746 118.133 167.709 118.305C167.602 118.755 167.548 119.216 167.55 119.679V145.592C167.552 145.994 167.593 146.394 167.673 146.787C167.705 146.958 167.748 147.127 167.8 147.293C168.027 148.068 168.402 148.792 168.904 149.424C169.041 149.6 169.188 149.769 169.345 149.929C170.026 150.639 170.847 151.199 171.754 151.574Z" fill="#68E1FD"/>
<path d="M171.754 151.574C170.857 151.792 169.931 151.994 168.976 152.179H61.1035C57.9151 152.198 54.7324 151.907 51.5998 151.311C51.0173 150.908 50.4761 150.448 49.9841 149.937C49.8253 149.774 49.6704 149.603 49.5236 149.431C48.9696 148.782 48.4976 148.066 48.1182 147.301C48.0349 147.134 47.9555 146.962 47.884 146.795C47.5889 146.113 47.3757 145.397 47.2488 144.665C47.2211 144.497 47.1933 144.33 47.1734 144.155C47.1256 143.765 47.1017 143.373 47.102 142.98V121.61C47.102 121.379 47.102 121.152 47.1258 120.929C47.1496 120.706 47.1536 120.591 47.1734 120.424C47.2617 119.696 47.4336 118.981 47.6855 118.293C47.749 118.122 47.8165 117.955 47.888 117.783C48.2119 117.026 48.6279 116.312 49.1266 115.657C49.2576 115.486 49.3925 115.314 49.5236 115.147C49.8167 114.804 50.1309 114.479 50.4644 114.175C53.9598 113.419 57.5278 113.051 61.1035 113.08H171.997L172.886 113.311C171.617 113.615 170.452 114.253 169.511 115.159C169.343 115.318 169.185 115.488 169.039 115.669C168.508 116.293 168.104 117.016 167.848 117.795C167.792 117.962 167.746 118.133 167.709 118.305C167.602 118.755 167.548 119.216 167.55 119.679V145.592C167.552 145.994 167.593 146.394 167.673 146.787C167.705 146.958 167.748 147.127 167.8 147.293C168.027 148.068 168.402 148.792 168.904 149.424C169.041 149.6 169.188 149.769 169.345 149.929C170.026 150.639 170.847 151.199 171.754 151.574Z" fill="url(#paint9_linear_5_4908)"/>
<path d="M218.527 153.764C218.208 154.135 217.861 154.481 217.491 154.8C217.859 154.478 218.205 154.132 218.527 153.764Z" fill="url(#paint10_linear_5_4908)"/>
<path d="M219.567 116.378C219.507 116.286 219.448 116.194 219.384 116.107C219.265 115.932 219.138 115.756 219.011 115.589C219.21 115.844 219.396 116.107 219.567 116.378Z" fill="url(#paint11_linear_5_4908)"/>
<path d="M220.825 119.002C220.857 119.094 220.885 119.185 220.913 119.277C220.861 119.09 220.798 118.906 220.73 118.723C220.766 118.815 220.798 118.906 220.825 119.002Z" fill="url(#paint12_linear_5_4908)"/>
<path d="M221.413 121.766V143.625C221.413 143.832 221.393 143.932 221.373 144.087C221.302 144.743 221.161 145.389 220.953 146.015C220.905 146.17 220.853 146.321 220.794 146.469C219.793 148.967 217.901 151.003 215.486 152.179H167.943C164.275 152.179 161.246 149.694 160.798 146.477C160.77 146.324 160.754 146.17 160.75 146.015C160.736 145.882 160.729 145.749 160.73 145.616V119.826C160.73 116.198 163.962 113.263 167.955 113.263H216.606C219.519 115.159 221.413 118.257 221.413 121.766Z" fill="#68E1FD"/>
<path d="M219.384 115.657H169.039C169.185 115.476 169.343 115.306 169.512 115.147H218.968C219.118 115.314 219.253 115.47 219.384 115.657ZM220.825 118.293H167.709C167.745 118.121 167.792 117.95 167.848 117.783H220.627C220.698 117.951 220.766 118.122 220.825 118.293ZM221.393 120.929H167.55V120.42H221.349C221.349 120.587 221.381 120.758 221.393 120.929ZM167.55 123.056H221.417V123.566H167.55V123.056ZM167.55 125.692H221.417V126.202H167.55V125.692ZM167.55 128.329H221.417V128.839H167.55V128.329ZM167.55 130.969H221.417V131.475H167.55V130.969ZM167.55 133.605H221.417V134.111H167.55V133.605ZM167.55 136.242H221.417V136.748H167.55V136.242ZM167.55 138.878H221.417V139.384H167.55V138.878ZM167.55 141.514H221.417V142.024H167.55V141.514ZM221.421 144.143C221.412 144.313 221.412 144.483 221.421 144.653H167.55V144.143H221.421ZM220.631 146.787C220.631 146.958 220.413 147.126 220.397 147.297H167.801C167.747 147.13 167.705 146.96 167.673 146.787H220.631Z" fill="white"/>
<path d="M170.972 115.657H49.1266C49.2576 115.486 49.3926 115.314 49.5236 115.147H170.004C170.337 115.314 170.659 115.47 170.972 115.657ZM169.877 118.293H47.6855C47.749 118.122 47.8165 117.955 47.888 117.783H169.396C169.566 117.944 169.726 118.114 169.877 118.293ZM171.226 120.929H47.1258C47.1258 120.758 47.1536 120.591 47.1734 120.424H171.107C171.157 120.59 171.197 120.759 171.226 120.929ZM47.098 123.056H171.282V123.562H47.098V123.056ZM47.098 125.692H171.282V126.198H47.098V125.692ZM47.098 128.329H171.282V128.839H47.098V128.329ZM47.098 130.969H171.282V131.475H47.098V130.969ZM47.098 133.609H171.282V134.111H47.098V133.609ZM47.098 136.242H171.282V136.744H47.098V136.242ZM47.098 138.878H171.282V139.384H47.098V138.878ZM47.098 141.514H171.282V142.024H47.098V141.514ZM171.115 144.143C171.063 144.316 171 144.486 170.929 144.653H47.2488C47.2211 144.485 47.1933 144.318 47.1734 144.143H171.115ZM169.412 146.791C169.235 146.97 169.048 147.138 168.853 147.297H48.1182C48.0349 147.13 47.9555 146.958 47.884 146.791H169.412Z" fill="white"/>
<path opacity="0.2" d="M175.613 106.31C173.823 108.469 171.508 110.639 170.591 111.121C165.375 113.877 159.333 116.007 156.272 121.045C152.398 127.417 154.903 135.752 153.124 143.008C152.799 144.33 152.294 145.68 151.274 146.592C150.254 147.504 148.614 147.815 147.531 146.99C146.578 146.269 146.34 144.963 146.161 143.78C144.596 132.615 144.538 121.29 145.986 110.109C140.032 112.778 136.002 118.409 132.822 124.103C129.643 129.798 126.975 135.903 122.545 140.686C121.286 142.04 119.631 143.366 117.805 143.103C115.609 140.316 116.76 136.242 118.007 132.905C120.504 126.202 123.009 119.484 126.225 113.092C127.265 111.021 128.42 108.942 130.167 107.421C130.645 107.006 131.16 106.637 131.707 106.318L175.613 106.31Z" fill="#3F3D56"/>
<path d="M218.991 149.428C218.856 149.607 218.706 149.746 218.555 149.933H49.9841C49.8253 149.77 49.6704 149.599 49.5236 149.428H218.991Z" fill="white"/>
<path d="M86.4549 213.879H66.0857C59.5553 212.23 56.3914 205.145 56.3914 205.145C56.3914 205.145 55.7999 170.498 56.3914 166.118C56.9829 161.737 66.8757 158.591 66.8757 158.591H86.4549C79.9245 159.531 75.1806 165.919 75.1806 165.919C75.1806 165.919 74.7836 204.209 75.1806 206.786C75.5775 209.363 86.4549 213.879 86.4549 213.879Z" fill="url(#paint13_linear_5_4908)"/>
<path d="M86.4548 213.879H79.9245C73.4021 212.23 70.2381 205.145 70.2381 205.145C70.2381 205.145 69.6426 170.498 70.2381 166.118C70.8336 161.737 80.7184 158.591 80.7184 158.591H86.4548C79.9245 159.531 75.1805 165.919 75.1805 165.919C75.1805 165.919 74.7836 204.209 75.1805 206.786C75.5775 209.363 86.4548 213.879 86.4548 213.879Z" fill="url(#paint14_linear_5_4908)"/>
<path d="M114.823 131.339L112.926 134.645L117.332 136.568L119.154 133.422L114.823 131.339Z" fill="url(#paint15_linear_5_4908)"/>
<path d="M144.45 140.216L144.244 143.9L149.047 143.621L149.25 140.216H144.45Z" fill="url(#paint16_linear_5_4908)"/>
<path d="M113.791 133.912C113.694 133.712 113.559 133.532 113.394 133.382C113.199 133.253 112.976 133.171 112.743 133.143L105.117 131.606C104.842 131.538 104.559 131.507 104.275 131.515C103.545 131.562 102.945 132.1 102.465 132.654C102.19 132.915 102.013 133.264 101.965 133.641C101.993 133.878 102.07 134.106 102.19 134.312C102.31 134.518 102.471 134.696 102.664 134.836C103.199 135.335 103.763 135.803 104.351 136.238C105.481 137.033 106.657 137.76 107.872 138.416C108.69 138.878 109.508 139.34 110.345 139.762C111.723 140.455 113.152 141.037 114.589 141.602C114.636 141.632 114.689 141.652 114.744 141.661C114.799 141.67 114.856 141.668 114.91 141.655C114.964 141.642 115.015 141.618 115.06 141.585C115.106 141.552 115.144 141.511 115.173 141.463C116.212 140.375 117.032 139.096 117.586 137.695C117.725 137.349 117.983 136.588 117.586 136.302C117.447 136.202 117.054 136.218 116.88 136.178C116.619 136.115 116.364 136.031 116.117 135.927C115.15 135.518 114.335 134.813 113.791 133.912ZM144.732 142.227C144.547 142.104 144.341 142.016 144.124 141.968C143.891 141.955 143.657 141.996 143.442 142.088L136.082 144.609C135.81 144.688 135.549 144.803 135.307 144.951C134.7 145.35 134.45 146.146 134.311 146.851C134.205 147.215 134.229 147.605 134.379 147.954C134.52 148.143 134.699 148.3 134.904 148.416C135.109 148.532 135.335 148.604 135.569 148.627C136.282 148.788 137.003 148.908 137.729 148.985C139.103 149.105 140.483 149.141 141.862 149.093C142.803 149.093 143.739 149.069 144.676 149.009C146.217 148.914 147.745 148.695 149.265 148.46C149.376 148.464 149.483 148.425 149.565 148.35C149.647 148.276 149.696 148.172 149.702 148.062C150.055 146.596 150.123 145.077 149.905 143.585C149.849 143.215 149.678 142.434 149.198 142.391C149.027 142.371 148.698 142.586 148.527 142.638C148.268 142.717 148.002 142.773 147.733 142.805C146.697 142.936 145.646 142.734 144.732 142.227ZM174.529 92.5509C174.529 92.5509 173.283 104.255 162.529 106.318C155.248 107.716 146.344 107.218 141.357 106.752C140.178 106.643 138.992 106.863 137.93 107.388C136.868 107.913 135.971 108.723 135.339 109.727L119.857 134.466L115.371 132.291H115.335L113.747 131.527L126.641 101.348C127.399 99.4734 128.561 97.7908 130.046 96.4217C131.53 95.0525 133.299 94.0311 135.224 93.431L150.036 88.8314L153.497 87.7561C153.497 87.7561 167.36 86.3543 174.529 92.5509Z" fill="#3F3D56"/>
<path opacity="0.24" d="M150.047 88.8154L151.02 90.8823C151.02 90.8823 133.95 95.9001 131.854 98.3413C129.055 101.607 115.375 132.291 115.375 132.291H115.339L113.751 131.527L126.645 101.348C127.403 99.4734 128.565 97.7908 130.05 96.4217C131.534 95.0525 133.303 94.0311 135.228 93.431L150.047 88.8154Z" fill="white"/>
<path d="M156.109 90.5199C156.109 90.5199 142.398 103.921 141.953 111.089C141.508 118.257 143.426 140.734 143.426 140.734H150.079C150.079 140.734 149.75 113.447 152.461 113.255C155.173 113.064 167.463 105.139 169.436 102.865C171.409 100.591 174.557 92.543 174.557 92.543L156.109 90.5199Z" fill="#3F3D56"/>
<path d="M174.529 92.5509C174.529 92.5509 163.537 98.178 152.124 91.5951C151.128 91.0217 150.172 90.3817 149.261 89.6796C149.261 89.6796 154.073 81.0577 150.242 68.5331C148.602 63.1767 148.567 52.9499 156.685 51.4924H156.725C164.799 50.0547 164.343 52.0539 164.343 52.0539L167.995 55.6142C175.018 61.3448 175.788 70.0942 174.529 92.5509Z" fill="#68E1FD"/>
<path opacity="0.24" d="M156.725 51.4844C156.386 52.2212 155.862 52.8567 155.204 53.3283C155.204 53.3283 150.377 55.4748 151.342 62.5754C152.306 69.676 154.073 83.3317 154.073 83.3317L152.124 91.5951C151.128 91.0217 150.172 90.3817 149.261 89.6796C149.261 89.6796 154.073 81.0577 150.242 68.5331C148.602 63.1768 148.567 52.95 156.685 51.4924L156.725 51.4844Z" fill="white"/>
<path d="M163.986 51.0304C163.547 51.5557 163.007 51.9863 162.397 52.2962C161.788 52.6062 161.123 52.789 160.441 52.8337C159.759 52.8783 159.076 52.7839 158.432 52.5561C157.787 52.3283 157.196 51.9719 156.693 51.5083C156.693 51.5083 150.738 57.4819 156.756 58.2027C159.932 58.601 163.843 54.746 164.974 52.5676L163.986 51.0304Z" fill="#3F3D56"/>
<path d="M165.772 45.4352C165.748 45.5148 164.629 48.9516 163.787 51.4088C163.163 53.324 161.838 54.9307 160.079 55.9049C159.047 56.5295 157.899 56.936 156.705 57.0996C156.419 57.1257 156.132 57.0723 155.875 56.9452C155.618 56.8181 155.401 56.6222 155.248 56.3792C155.095 56.1362 155.012 55.8554 155.007 55.568C155.003 55.2805 155.078 54.9974 155.224 54.75C155.502 54.2602 155.804 53.6947 156.082 53.0933C156.661 51.8428 157.145 50.453 157.066 49.3538V49.2344C156.995 48.6609 157.368 48.1551 157.995 47.7131C158.88 47.0958 160.274 46.61 161.635 46.2436C162.998 45.8971 164.379 45.6272 165.772 45.4352Z" fill="url(#paint17_linear_5_4908)"/>
<path d="M156.947 53.0455C156.674 53.1007 156.395 53.1208 156.117 53.1053C156.697 51.8548 157.181 50.4649 157.102 49.3658L158.023 47.725L158.71 46.5064L161.663 46.2555L164.648 46.0047C162.679 50.676 159.373 52.6115 156.947 53.0455Z" fill="url(#paint18_linear_5_4908)"/>
<path d="M162.493 29.7206C161.413 29.4935 160.297 29.4929 159.217 29.719C158.136 29.9451 157.114 30.3929 156.215 31.0343C155.315 31.6758 154.557 32.4969 153.989 33.4462C153.421 34.3955 153.055 35.4524 152.914 36.5504C152.303 39.769 152.278 43.0717 152.838 46.2994C154.2 51.2973 161.516 49.4853 163.001 47.968C164.486 46.4507 170.452 39.4576 169.476 36.7376C168.853 34.8898 166.669 30.6684 162.493 29.7206Z" fill="url(#paint19_linear_5_4908)"/>
<path d="M156.598 24.8462L157.725 25.8657C156.95 25.6365 156.132 25.5954 155.339 25.7457C154.545 25.8959 153.798 26.2332 153.16 26.7299C151.637 27.6042 150.519 29.0449 150.047 30.7401L152.552 30.2901C152.552 30.2901 151.639 32.9942 155.792 34.3442C159.944 35.6942 164.351 37.0761 164.351 37.0761L163.461 34.6867C163.461 34.6867 165.792 36.4469 165.986 37.546C165.979 39.213 165.846 40.8771 165.589 42.524C165.589 42.524 167.368 40.0948 167.638 40.8036C167.908 41.5125 166.359 43.7307 165.653 44.125C164.946 44.5192 164.613 46.156 164.525 46.2755C164.438 46.3949 167.701 44.9055 168.023 44.1727C168.344 43.44 173.072 36.4668 171.782 34.38L172.85 34.5831C172.342 33.997 171.71 33.5318 171 33.2212C171 33.2212 166.566 22.2815 156.598 24.8462Z" fill="#3F3D56"/>
<path d="M155.026 83.6503C154.426 83.0489 153.835 82.3321 152.997 82.1887C152.703 82.8896 153.303 83.6104 153.557 84.3233C153.595 84.4027 153.615 84.4899 153.615 84.5781C153.615 84.6664 153.595 84.7536 153.557 84.833C153.438 85.0242 153.16 85.0361 152.941 85.0202C151.882 84.944 150.843 84.6938 149.865 84.2795C148.96 83.8812 148.09 83.3675 147.11 83.2679C147.005 83.2469 146.896 83.2609 146.8 83.3078C146.562 83.4591 146.701 83.8255 146.872 84.0485C147.236 84.5301 147.65 84.9719 148.106 85.3667C147.414 85.0601 146.676 84.8704 145.923 84.8051C145.712 84.8051 145.427 84.8489 145.431 85.06C145.444 85.1468 145.486 85.2266 145.55 85.287C146.108 85.9279 146.781 86.4575 147.535 86.8481C146.987 86.7321 146.427 86.6853 145.867 86.7087C145.625 86.7087 145.303 86.8362 145.339 87.0751C145.357 87.1529 145.395 87.2245 145.45 87.2822C146.121 88.0963 147.029 88.6798 148.047 88.9508L146.459 88.9867C146.359 88.9818 146.259 89.0023 146.169 89.0464C145.883 89.2296 146.133 89.6796 146.411 89.8747C147.634 90.7309 149.19 90.8823 150.687 90.9898C153.549 91.1969 156.562 91.3084 159.142 90.042C159.329 89.9464 159.539 89.819 159.575 89.6119C159.583 89.5035 159.567 89.3946 159.527 89.2933C159.214 88.2459 159.055 86.3463 158.106 85.7091C157.646 85.4025 157.078 85.2273 156.606 84.9127C156.133 84.5981 155.565 83.9211 155.026 83.6503Z" fill="url(#paint20_linear_5_4908)"/>
<path d="M176.86 81.4281C175.962 90.273 159.964 91.3562 159.964 91.3562L158.317 85.6733L158.027 84.6737C158.027 84.6737 166.586 83.5905 168.221 80.9024C169.857 78.2143 163.124 69.2021 167.193 64.1763C171.262 59.1505 172.187 60.6957 172.187 60.6957C172.187 60.6957 177.749 72.5832 176.86 81.4281Z" fill="#68E1FD"/>
<path d="M133.938 68.2065C133.938 68.2065 133.938 68.537 133.87 69.0348C133.735 70.2734 133.35 72.5394 132.326 73.3637C130.885 74.5226 130.687 72.8341 130.718 72.169C130.75 71.8039 130.81 71.4417 130.897 71.0858C131.23 69.6442 132.997 68.6565 133.676 68.33L133.938 68.2065Z" fill="url(#paint21_linear_5_4908)"/>
<path d="M133.87 69.0348C133.735 70.2734 133.35 72.5394 132.326 73.3637C131.882 73.0411 131.31 72.611 130.718 72.169C129.924 71.5716 129.079 70.9424 128.479 70.5044C127.946 70.1454 127.461 69.7199 127.034 69.238C126.663 68.7473 126.353 68.2122 126.113 67.645L124.883 64.9609C124.486 64.0807 124.089 62.9179 124.795 62.2369C124.974 62.0617 126.602 61.7431 126.709 61.5121C127.007 60.851 125.121 59.4532 125.24 58.7244C125.299 58.5259 125.425 58.3544 125.597 58.2395C125.769 58.1246 125.976 58.0735 126.181 58.0952C126.578 58.1151 127.705 59.1545 128.059 59.3656C128.757 59.7638 128.17 60.3293 128.853 60.7435C129.739 61.1999 130.543 61.8 131.234 62.5196C132.005 63.4236 132.394 64.5825 132.763 65.7056C133.033 66.5299 133.394 67.422 133.672 68.3101C133.747 68.5649 133.815 68.7999 133.87 69.0348Z" fill="url(#paint22_linear_5_4908)"/>
<path d="M128.031 62.6869L125.383 50.0906L124.402 45.4352L139.789 49.5729L144.256 79.7077L129.956 75.335L128.031 62.6869Z" fill="#68E1FD"/>
<path d="M131.234 62.5356L125.145 48.9636L129.956 75.335L144.255 79.7077L142.723 69.3733L131.234 62.5356Z" fill="url(#paint23_linear_5_4908)"/>
<path d="M128.908 68.1189C129.392 67.876 130.385 67.4339 130.635 66.9521C130.695 66.8366 130.782 66.6852 130.706 66.5817C130.361 66.1038 128.94 66.7131 128.535 66.5817C128.813 66.1237 131.29 64.7339 130.123 64.4193C129.873 64.3516 128.321 65.1401 128.071 65.0684C128.265 64.9091 129.861 63.7701 130.135 63.4754C130.214 63.3877 130.261 63.2755 130.268 63.1574C130.275 63.0393 130.242 62.9223 130.174 62.8255C130.107 62.7287 130.008 62.6579 129.895 62.6248C129.781 62.5917 129.66 62.5981 129.551 62.6431C128.706 63.0325 127.839 63.3729 126.955 63.6626C127.126 63.3799 129.432 62.0696 129.523 61.7351C129.571 61.6146 129.579 61.4823 129.547 61.3568C129.515 61.2863 129.468 61.2234 129.41 61.1719C129.352 61.1205 129.284 61.0818 129.21 61.0581C128.567 60.8072 127.844 61.0581 127.201 61.317L125.677 61.9223C125.188 62.1134 124.649 62.3604 124.486 62.8542C124.414 63.1041 124.402 63.3673 124.45 63.6228C124.64 65.2281 125.213 66.7637 126.121 68.099C126.574 68.7601 128.003 70.357 128.825 70.5123C129.555 70.6517 128.229 68.4773 128.908 68.1189Z" fill="url(#paint24_linear_5_4908)"/>
<path opacity="0.24" d="M144.827 108.942C144.827 108.942 150.075 96.8798 156.141 93.4469L154.073 92.6067C154.073 92.6067 143.422 103.968 142.163 109.815C140.905 115.661 143.43 140.746 143.43 140.746H145.176C145.176 140.746 142.29 111.404 144.827 108.942ZM168.686 82.8139C165.307 84.2078 159.555 85.4224 158.317 85.6773L158.078 85.7251L158.027 84.6777C158.027 84.6777 166.586 83.5945 168.221 80.9064C169.857 78.2183 163.124 69.2061 167.193 64.1803C167.193 64.1803 166.677 68.6247 168.015 71.9101C169.353 75.1956 172.481 81.2449 168.686 82.8139Z" fill="white"/>
</g>
<defs>
<linearGradient id="paint0_linear_5_4908" x1="166.844" y1="282.352" x2="102.146" y2="-75.0524" gradientUnits="userSpaceOnUse">
<stop offset="0.02" stop-color="#68E1FD"/>
<stop offset="1" stop-color="white" stop-opacity="0"/>
</linearGradient>
<linearGradient id="paint1_linear_5_4908" x1="233.509" y1="104.753" x2="258.275" y2="142.375" gradientUnits="userSpaceOnUse">
<stop stop-color="white" stop-opacity="0"/>
<stop offset="0.99" stop-color="white"/>
</linearGradient>
<linearGradient id="paint2_linear_5_4908" x1="139.611" y1="135.82" x2="140.318" y2="72.0058" gradientUnits="userSpaceOnUse">
<stop stop-color="white" stop-opacity="0"/>
<stop offset="0.99" stop-color="white"/>
</linearGradient>
<linearGradient id="paint3_linear_5_4908" x1="163.656" y1="83.8095" x2="130.433" y2="163.475" gradientUnits="userSpaceOnUse">
<stop offset="0.17" stop-color="#00272E"/>
<stop offset="1" stop-color="#69B9EB" stop-opacity="0"/>
</linearGradient>
<linearGradient id="paint4_linear_5_4908" x1="115.173" y1="180.004" x2="116.858" y2="228.382" gradientUnits="userSpaceOnUse">
<stop offset="0.17" stop-color="#00272E"/>
<stop offset="1" stop-color="#69B9EB" stop-opacity="0"/>
</linearGradient>
<linearGradient id="paint5_linear_5_4908" x1="117.277" y1="153.41" x2="115.155" y2="179.852" gradientUnits="userSpaceOnUse">
<stop stop-color="white" stop-opacity="0"/>
<stop offset="0.99" stop-color="white"/>
</linearGradient>
<linearGradient id="paint6_linear_5_4908" x1="148.102" y1="185.882" x2="215.105" y2="186.618" gradientUnits="userSpaceOnUse">
<stop offset="0.18" stop-color="#00272E"/>
<stop offset="1" stop-color="#69B9EB" stop-opacity="0"/>
</linearGradient>
<linearGradient id="paint7_linear_5_4908" x1="263.092" y1="189.964" x2="163.672" y2="181.792" gradientUnits="userSpaceOnUse">
<stop stop-color="#68E1FD"/>
<stop offset="1" stop-color="white"/>
</linearGradient>
<linearGradient id="paint8_linear_5_4908" x1="222.112" y1="134.92" x2="166.663" y2="130.365" gradientUnits="userSpaceOnUse">
<stop stop-color="#68E1FD"/>
<stop offset="1" stop-color="white"/>
</linearGradient>
<linearGradient id="paint9_linear_5_4908" x1="169.456" y1="132.622" x2="22.0722" y2="132.622" gradientUnits="userSpaceOnUse">
<stop stop-color="white" stop-opacity="0"/>
<stop offset="0.99" stop-color="white"/>
</linearGradient>
<linearGradient id="paint10_linear_5_4908" x1="217.491" y1="154.282" x2="218.527" y2="154.282" gradientUnits="userSpaceOnUse">
<stop stop-color="#68E1FD"/>
<stop offset="1" stop-color="#69B9EB"/>
</linearGradient>
<linearGradient id="paint11_linear_5_4908" x1="219.011" y1="115.983" x2="219.567" y2="115.983" gradientUnits="userSpaceOnUse">
<stop stop-color="#68E1FD"/>
<stop offset="1" stop-color="#69B9EB"/>
</linearGradient>
<linearGradient id="paint12_linear_5_4908" x1="220.73" y1="119.002" x2="220.913" y2="119.002" gradientUnits="userSpaceOnUse">
<stop stop-color="#68E1FD"/>
<stop offset="1" stop-color="#69B9EB"/>
</linearGradient>
<linearGradient id="paint13_linear_5_4908" x1="65.6331" y1="225.447" x2="79.3617" y2="141.943" gradientUnits="userSpaceOnUse">
<stop stop-color="white" stop-opacity="0"/>
<stop offset="0.99" stop-color="white"/>
</linearGradient>
<linearGradient id="paint14_linear_5_4908" x1="80.7383" y1="160.196" x2="74.5702" y2="236.372" gradientUnits="userSpaceOnUse">
<stop offset="0.02" stop-color="#68E1FD"/>
<stop offset="1" stop-color="white"/>
</linearGradient>
<linearGradient id="paint15_linear_5_4908" x1="119.841" y1="134.267" x2="110.678" y2="133.511" gradientUnits="userSpaceOnUse">
<stop stop-color="#ECC4D7"/>
<stop offset="0.42" stop-color="#EFD4D1"/>
<stop offset="1" stop-color="#F2EAC9"/>
</linearGradient>
<linearGradient id="paint16_linear_5_4908" x1="150.155" y1="140.498" x2="141.758" y2="143.905" gradientUnits="userSpaceOnUse">
<stop stop-color="#ECC4D7"/>
<stop offset="0.42" stop-color="#EFD4D1"/>
<stop offset="1" stop-color="#F2EAC9"/>
</linearGradient>
<linearGradient id="paint17_linear_5_4908" x1="156.514" y1="51.236" x2="164.048" y2="53.2484" gradientUnits="userSpaceOnUse">
<stop stop-color="#ECC4D7"/>
<stop offset="0.42" stop-color="#EFD4D1"/>
<stop offset="1" stop-color="#F2EAC9"/>
</linearGradient>
<linearGradient id="paint18_linear_5_4908" x1="162.923" y1="47.0879" x2="143.671" y2="65.6157" gradientUnits="userSpaceOnUse">
<stop stop-color="#ECC4D7"/>
<stop offset="0.42" stop-color="#EFD4D1"/>
<stop offset="1" stop-color="#F2EAC9"/>
</linearGradient>
<linearGradient id="paint19_linear_5_4908" x1="152.538" y1="38.9324" x2="168.493" y2="43.194" gradientUnits="userSpaceOnUse">
<stop stop-color="#ECC4D7"/>
<stop offset="0.42" stop-color="#EFD4D1"/>
<stop offset="1" stop-color="#F2EAC9"/>
</linearGradient>
<linearGradient id="paint20_linear_5_4908" x1="145.319" y1="86.6609" x2="159.551" y2="86.6609" gradientUnits="userSpaceOnUse">
<stop stop-color="#ECC4D7"/>
<stop offset="0.42" stop-color="#EFD4D1"/>
<stop offset="1" stop-color="#F2EAC9"/>
</linearGradient>
<linearGradient id="paint21_linear_5_4908" x1="130.718" y1="70.9822" x2="133.938" y2="70.9822" gradientUnits="userSpaceOnUse">
<stop stop-color="#183866"/>
<stop offset="1" stop-color="#1A7FC1"/>
</linearGradient>
<linearGradient id="paint22_linear_5_4908" x1="124.402" y1="65.7374" x2="133.87" y2="65.7374" gradientUnits="userSpaceOnUse">
<stop stop-color="#ECC4D7"/>
<stop offset="0.42" stop-color="#EFD4D1"/>
<stop offset="1" stop-color="#F2EAC9"/>
</linearGradient>
<linearGradient id="paint23_linear_5_4908" x1="129.849" y1="56.6058" x2="149.103" y2="103.017" gradientUnits="userSpaceOnUse">
<stop stop-color="white" stop-opacity="0"/>
<stop offset="0.99" stop-color="white"/>
</linearGradient>
<linearGradient id="paint24_linear_5_4908" x1="124.402" y1="65.7334" x2="130.738" y2="65.7334" gradientUnits="userSpaceOnUse">
<stop stop-color="#ECC4D7"/>
<stop offset="0.42" stop-color="#EFD4D1"/>
<stop offset="1" stop-color="#F2EAC9"/>
</linearGradient>
<clipPath id="clip0_5_4908">
<rect width="321" height="238" fill="white"/>
</clipPath>
</defs>
</svg>
