<svg width="324" height="219" viewBox="0 0 324 219" fill="none" xmlns="http://www.w3.org/2000/svg">
<g clip-path="url(#clip0_5_4719)">
<g opacity="0.18">
<path opacity="0.22" d="M315.798 182.577C315.609 184.715 315.265 186.837 314.767 188.925C314.767 188.95 314.767 188.978 314.747 189.003C309.816 209.022 290.54 219.862 253.781 218.856C191.324 217.144 110.027 198.423 62.1078 207.769C37.6797 212.553 20.3725 202.833 10.404 189.003L10.3465 188.925C8.89116 186.903 7.57857 184.781 6.41828 182.577C0.0945056 170.52 -1.35598 156.768 2.1901 146.905C10.7492 123.088 28.7179 113.348 31.286 86.1554C33.8542 58.9631 25.7265 46.5332 57.8097 17.5957C57.8097 17.5957 91.8242 -9.98254 127.979 8.81634C158.168 24.5149 176.877 23.2953 189.204 18.7578H189.249C196.801 15.9696 201.942 11.9372 205.845 9.81419C216.118 4.22955 265.746 -17.3781 287.138 29.767C304.618 68.2969 290.101 77.9591 296.815 109.471C297.012 110.395 297.226 111.336 297.464 112.301C297.637 113.019 297.826 113.75 298.023 114.493C298.586 116.608 299.256 118.817 300.007 121.137C301.351 125.219 303.028 129.638 305.103 134.454C305.127 134.508 305.152 134.565 305.173 134.619C308.449 142.079 311.141 149.782 313.222 157.659C314.762 163.458 315.684 169.402 315.971 175.395C316.071 177.79 316.013 180.189 315.798 182.577Z" fill="#68E1FD"/>
</g>
<g opacity="0.18">
<path opacity="0.22" d="M315.798 182.577C315.609 184.715 315.265 186.837 314.767 188.925C314.767 188.95 314.767 188.978 314.747 189.003C309.816 209.022 290.54 219.862 253.781 218.856C191.324 217.144 110.027 198.423 62.1078 207.769C37.6797 212.553 20.3725 202.833 10.404 189.003L10.3465 188.925C8.89116 186.903 7.57857 184.781 6.41828 182.577C0.0945056 170.52 -1.35598 156.768 2.1901 146.905C10.7492 123.088 28.7179 113.348 31.286 86.1554C33.8542 58.9631 25.7265 46.5332 57.8097 17.5957C57.8097 17.5957 91.8242 -9.98254 127.979 8.81634C158.168 24.5149 176.877 23.2953 189.204 18.7578H189.249C196.801 15.9696 201.942 11.9372 205.845 9.81419C216.118 4.22955 265.746 -17.3781 287.138 29.767C304.618 68.2969 290.101 77.9591 296.815 109.471C297.012 110.395 297.226 111.336 297.464 112.301C297.637 113.019 297.826 113.75 298.023 114.493C298.586 116.608 299.256 118.817 300.007 121.137C301.351 125.219 303.028 129.638 305.103 134.454C305.127 134.508 305.152 134.565 305.173 134.619C308.449 142.079 311.141 149.782 313.222 157.659C314.762 163.458 315.684 169.402 315.971 175.395C316.071 177.79 316.013 180.189 315.798 182.577Z" fill="#68E1FD"/>
</g>
<path d="M249.434 112.288C249.434 112.288 254.34 106.129 262.821 104.581C271.302 103.032 295.755 103.349 295.755 103.349L296.835 109.451L249.434 112.288Z" fill="#68E1FD"/>
<path opacity="0.27" d="M315.798 182.577C315.609 184.715 315.264 186.837 314.767 188.925C314.767 188.95 314.767 188.978 314.746 189.003H10.404L10.3465 188.925C8.89115 186.903 7.57857 184.781 6.41827 182.577H315.798Z" fill="#68E1FD"/>
<path d="M242.576 155.302H232.755C229.882 155.302 227.553 157.63 227.553 160.501V179.337C227.553 182.208 229.882 184.535 232.755 184.535H242.576C245.449 184.535 247.778 182.208 247.778 179.337V160.501C247.778 157.63 245.449 155.302 242.576 155.302Z" fill="#3F3D56"/>
<path opacity="0.27" d="M315 189C310.092 225.797 290.775 245.727 253.899 243.882C191.319 240.743 109.859 206.416 61.8461 223.553C37.3414 232.34 19.9798 214.435 10 189H315Z" fill="#68E1FD"/>
<path d="M54.013 189.003L22.0818 196.789L44.2952 196.559L74.8745 189.052L54.013 189.003ZM103.839 189.003L71.9078 196.789L94.1211 196.559L124.7 189.052L103.839 189.003ZM153.665 189.003L121.734 196.789L143.947 196.559L174.526 189.052L153.665 189.003ZM203.491 189.003L171.56 196.789L193.769 196.559L224.348 189.052L203.491 189.003ZM253.317 189.003L221.381 196.789L243.595 196.559L274.174 189.052L253.317 189.003ZM303.139 189.003L271.207 196.789L293.421 196.559L324 189.052L303.139 189.003Z" fill="white"/>
<path opacity="0.05" d="M251.829 189.003C244.117 191.738 236.162 193.869 228.243 195.984C219.5 198.325 210.669 200.673 201.621 201.035C196.163 201.249 190.7 200.734 185.378 199.503C183.632 199.092 181.877 198.62 180.086 198.632C176.864 198.665 173.922 200.275 170.91 201.466C162.692 204.689 153.62 204.636 144.798 204.542L107.13 204.131C100.371 204.057 92.8884 203.72 88.0439 198.99C87.3782 198.345 86.7372 197.52 86.8112 196.588C86.9386 194.924 89.0424 194.325 90.7024 194.148C100.367 193.118 110.068 192.268 119.704 190.995C123.525 190.49 127.301 189.763 131.065 189.003H251.829Z" fill="#000405"/>
<path d="M174.025 112.576L163.001 152.678L140.06 184.531L132.869 179.665L148.812 148.436L146.137 116.932L168.741 107.246L174.025 112.576Z" fill="#25233A"/>
<path d="M193.062 180.651L185.017 185.521C185.017 185.521 176.799 157.561 171.079 149.151C157.803 129.605 146.926 116.625 146.926 116.625L166.021 107.365L166.259 107.246L170.019 115.799L185.222 142.15L187.145 150.613L193.062 180.651Z" fill="#3F3D56"/>
<path d="M128.436 150.017L126.434 166.866L159.265 170.791L166.144 169.95L163.218 139.62L161.509 137.686L128.436 150.017Z" fill="#3F3D56"/>
<path d="M159.582 170.126L161.464 143.747L163.099 140.478L165.207 169.247L159.582 170.126Z" fill="url(#paint0_linear_5_4719)"/>
<path d="M140.085 128.976C140.085 128.976 137.299 130.619 137.159 135.3H139.263C139.263 135.3 139.402 131.863 141.017 131.514L140.085 128.976Z" fill="#3F3D56"/>
<path d="M175.882 39.5976L178.907 43.1167L175.241 46.5086L172.591 44.016L170.697 43.5725C170.085 43.4301 169.529 43.1088 169.101 42.6494C168.673 42.1901 168.392 41.6137 168.293 40.9937C168.246 40.695 168.182 40.3989 168.104 40.1068C167.693 38.5505 169.337 29.3029 170.364 29.6232C172.714 30.3747 173.507 35.8444 174.21 36.2632C174.913 36.6821 175.882 39.5976 175.882 39.5976Z" fill="url(#paint1_linear_5_4719)"/>
<path d="M173.417 40.7802C172.739 41.1908 170.467 42.3201 170.467 42.3201C170.086 42.4267 169.68 42.3947 169.32 42.2297C169.191 42.1488 169.087 42.0336 169.02 41.8971C168.922 41.7 168.034 39.0227 168.034 39.0227L166.896 35.9224L164.644 29.7628L168.544 28.1203C168.71 28.0506 168.889 28.0155 169.07 28.017C169.25 28.0186 169.428 28.0569 169.594 28.1294C169.759 28.202 169.908 28.3075 170.031 28.4393C170.154 28.5712 170.249 28.7267 170.311 28.8964L173.98 39.2362C174.055 39.5202 174.042 39.8205 173.941 40.0965C173.84 40.3726 173.657 40.6112 173.417 40.7802Z" fill="url(#paint2_linear_5_4719)"/>
<path d="M172.916 40.3655C172.46 40.579 169.324 42.2297 169.324 42.2297C169.195 42.1488 169.092 42.0336 169.024 41.8971C168.926 41.7 168.038 39.0227 168.038 39.0227L166.9 35.9224L165.934 31.775L169.308 28.3133L173.285 39.5606C173.307 39.7161 173.284 39.8745 173.218 40.0171C173.153 40.1598 173.048 40.2806 172.916 40.3655Z" fill="url(#paint3_linear_5_4719)"/>
<path d="M174.493 116.715L169.02 107.246L162.701 118.185C162.701 118.185 152.21 118.086 145.821 116.801L144.999 116.625C142.534 116.05 140.853 115.265 141.03 114.189C141.194 113.204 141.851 110.206 142.316 106.198C142.858 101.865 142.965 97.4873 142.636 93.1321C142.34 89.6868 140.824 86.1923 139.682 83.0263C139.1 81.547 138.68 80.0091 138.429 78.4395C137.993 74.9163 137.578 72.2102 137.237 71.0481C136.744 69.3522 136.604 66.9418 136.674 64.4328C136.801 59.46 137.734 54.0724 138.293 52.935C138.852 51.7975 143.832 49.5308 146.885 48.2455C148.253 47.6583 149.227 47.2764 149.227 47.2764H161.439L171.966 53.169C171.966 53.169 174.021 66.0055 174.309 68.6746C174.58 71.2781 171.202 82.2954 170.915 85.2232C170.208 92.5161 174.493 116.715 174.493 116.715Z" fill="#68E1FD"/>
<path d="M153.447 89.2885L146.926 116.625H144.987C142.521 116.05 140.841 115.265 141.017 114.189C141.334 112.296 143.483 102.798 142.628 93.1321C142.172 87.8883 138.93 82.5911 138.416 78.4395L146.297 69.6519L153.447 89.2885Z" fill="url(#paint4_linear_5_4719)"/>
<path d="M149.227 47.2764L163.896 71.122C163.896 71.122 163.263 53.4647 162.351 50.3644C161.439 47.2641 149.227 47.2764 149.227 47.2764Z" fill="white"/>
<path d="M152.461 39.0021C152.461 39.0021 150.538 46.7467 149.231 47.2764C150.778 49.4551 153.118 50.9412 155.748 51.4156C157.244 51.7031 163.28 52.2369 162.368 50.3644C161.456 48.4919 161.456 47.2764 161.456 47.2764V44.1926C161.456 44.1926 166.386 45.7324 166.863 43.5602C167.34 41.3879 169.809 37.5731 169.328 28.3174C168.848 19.0617 154.639 21.4885 152.671 22.9791C150.702 24.4698 149.252 33.4134 152.461 39.0021Z" fill="url(#paint5_linear_5_4719)"/>
<path d="M157.199 17.723C158.338 17.5123 159.497 17.4324 160.654 17.4848C162.489 17.4664 164.31 17.7967 166.021 18.4581C167.701 19.1849 169.201 20.4866 169.826 22.2113C170.104 23.0994 170.264 24.0203 170.302 24.9502C170.364 25.3604 170.346 25.7787 170.249 26.1821C170.196 26.3813 170.087 26.5615 169.936 26.7018C169.785 26.842 169.597 26.9366 169.394 26.9746C168.753 27.0403 168.161 26.334 167.557 26.527C167.167 26.6461 166.97 27.0732 166.645 27.3196C165.967 27.8329 165.002 27.4304 164.254 27.0444C163.506 26.6584 162.479 26.3299 161.912 26.9459C161.443 27.4263 161.414 28.3708 160.761 28.5227C160.585 28.5514 160.404 28.543 160.231 28.4981C159.023 28.264 157.605 28.0135 156.71 28.8512C156.254 29.3658 155.951 29.9972 155.834 30.6744C155.632 31.4245 155.432 32.1733 155.235 32.9206L154.043 31.66C153.946 31.5412 153.822 31.4469 153.681 31.3848C153.522 31.361 153.359 31.3844 153.213 31.4523C153.067 31.5202 152.944 31.6296 152.86 31.7667C152.655 32.061 152.516 32.3958 152.453 32.7483C152.389 33.1009 152.402 33.4631 152.491 33.8102C152.58 34.1572 152.742 34.4812 152.968 34.7599C153.193 35.0386 153.476 35.2656 153.796 35.4255C153.968 35.4755 154.125 35.5672 154.252 35.6924C154.325 35.802 154.37 35.9273 154.384 36.0579C154.61 37.376 154.137 38.7229 153.439 39.8604C153.226 40.2921 152.862 40.631 152.416 40.813C151.956 40.9444 151.36 40.62 151.397 40.1478L150.526 40.4599C150.116 39.227 149.84 37.9535 149.704 36.6615C149.227 33.2615 148.75 29.8614 148.561 26.4367C148.451 25.3847 148.526 24.3215 148.783 23.2953C148.918 22.7842 149.17 22.3116 149.519 21.9151C149.869 21.5187 150.306 21.2095 150.797 21.0122C151.434 20.8028 151.873 20.774 152.362 20.3429C152.779 19.9254 153.224 19.5371 153.694 19.1808C154.757 18.474 155.947 17.9791 157.199 17.723Z" fill="#091240"/>
<path d="M191.669 72.2964C189.841 72.2964 174.309 68.6746 174.309 68.6746L172.891 59.2875L171.966 53.1691C171.966 53.1691 177.653 56.4541 178.849 57.7271C180.045 59.0001 182.005 58.5484 182.005 58.5484L173.865 47.7651L178.886 43.1167L180.599 41.5234L187.827 50.0811C187.827 50.0811 192.602 56.6759 194.496 61.0902C194.811 61.8508 195.005 62.6557 195.071 63.476C195.445 67.5988 193.185 72.2964 191.669 72.2964Z" fill="#68E1FD"/>
<path d="M168.075 40.1067C168.075 40.1067 168.897 38.1398 169.328 38.0536C169.76 37.9673 169.961 40 169.612 40.4886C169.263 40.9773 169.559 42.5747 169.698 42.7184C169.838 42.8621 167.816 41.8602 168.075 40.1067Z" fill="url(#paint6_linear_5_4719)"/>
<path d="M145.821 116.801L146.281 118.185L139.653 120.76L138.7 121.133C138.7 121.133 127.121 97.7764 126.488 94.8321C125.855 91.8879 130.7 65.5826 138.281 52.9473C138.965 53.3202 139.628 53.7315 140.265 54.1792C142.92 55.9901 147.415 59.7721 148.504 65.1719L139.67 83.0346L136.645 89.1571L142.303 106.198L145.821 116.801Z" fill="#68E1FD"/>
<path d="M145.356 118.546C145.356 118.546 150.209 123.026 150.563 124.008C150.916 124.989 150.563 127.584 150.563 127.584H149.65L149.441 130.389C149.441 130.389 149.03 132.356 148.036 132.286C147.128 132.303 146.227 132.441 145.356 132.697C145.356 132.697 141.93 132.418 141.017 131.506C140.105 130.594 139.612 126.32 139.682 125.129C139.752 123.938 139.682 120.431 139.682 120.431L145.356 118.546Z" fill="url(#paint7_linear_5_4719)"/>
<path d="M150.563 127.584C150.563 127.584 152.292 127.445 153.229 131.37C154.166 135.296 153.977 136.709 153.977 136.709H151.45C151.45 136.709 150.846 130.389 149.49 129.728L149.65 127.58L150.563 127.584Z" fill="#3F3D56"/>
<path d="M163.218 139.616L161.727 150.518C161.631 151.217 161.269 151.852 160.717 152.291C160.164 152.729 159.463 152.937 158.76 152.871L128.436 149.997C128.065 149.965 127.705 149.859 127.377 149.683C127.05 149.507 126.761 149.266 126.53 148.975C126.299 148.684 126.131 148.349 126.034 147.99C125.938 147.631 125.916 147.256 125.97 146.888L127.4 136.935C127.497 136.255 127.847 135.636 128.38 135.203C128.913 134.77 129.591 134.554 130.276 134.598L160.679 136.52C161.054 136.543 161.421 136.643 161.756 136.814C162.09 136.985 162.386 137.224 162.624 137.514C162.863 137.805 163.039 138.142 163.141 138.503C163.243 138.865 163.269 139.244 163.218 139.616ZM188.111 189.516L186.155 184.823L192.318 181.086L194.932 187.205C194.932 187.205 203.598 187.484 207.526 191.27L209.211 194.497H188.181L188.111 189.516ZM130.683 184.466L133.851 180.4L138.651 183.517L136.629 187.792L139.739 193.75C139.739 193.75 142.036 193.656 144.584 195.803C147.132 197.951 146.273 198.513 146.273 198.513H133.67L126.434 187.792C126.434 187.792 129.04 184.63 130.683 184.466Z" fill="#3F3D56"/>
<path d="M150.534 45.1781C150.534 45.1781 146.984 45.1781 146.774 47.2764L147.896 55.0785L152.177 56.8319L151.335 61.1805L163.896 71.1385L149.227 47.2929C149.771 46.661 150.212 45.9473 150.534 45.1781ZM163.65 47.9088L161.439 46.0158C161.373 46.974 161.479 47.9363 161.751 48.8574C162.187 50.0072 164.25 67.6152 163.896 71.122L166.432 58.5648L164.258 54.8691L165.1 52.2041L163.65 47.9088Z" fill="#68E1FD"/>
<path d="M158.842 51.7195L157.86 54.3147L159.754 56.3268L159.307 63.6772L163.896 71.1261L163.568 63.7306L160.88 56.0476L161.423 53.8014L160.252 51.6908L158.842 51.7195Z" fill="#68E1FD"/>
<path d="M150.534 45.1781C150.534 45.1781 146.984 45.1781 146.774 47.2764L147.896 55.0785L152.177 56.8319L151.335 61.1806L163.896 71.1385L149.227 47.2929C149.771 46.661 150.212 45.9473 150.534 45.1781Z" fill="url(#paint8_linear_5_4719)"/>
<path d="M163.65 47.9088L161.439 46.0158C161.373 46.974 161.479 47.9363 161.751 48.8574C162.187 50.0072 164.25 67.6152 163.896 71.122L166.432 58.5648L164.258 54.8691L165.1 52.2041L163.65 47.9088Z" fill="url(#paint9_linear_5_4719)"/>
<path d="M158.842 51.7195L157.86 54.3147L159.754 56.3268L159.307 63.6772L163.896 71.1261L163.568 63.7306L160.88 56.0476L161.423 53.8014L160.252 51.6908L158.842 51.7195Z" fill="url(#paint10_linear_5_4719)"/>
<path d="M165.092 73.089L168.926 79.0267L169.02 107.246L174.493 116.715C174.493 116.715 169.152 92.9966 170.915 85.2232C172.677 77.4499 171.966 76.1893 171.966 76.1893L165.092 73.089Z" fill="url(#paint11_linear_5_4719)"/>
<path opacity="0.24" d="M128.867 93.1321C130.005 97.5587 141.017 119.988 141.017 119.988L139.653 120.76L138.7 121.133C138.7 121.133 127.121 97.7764 126.488 94.8321C125.855 91.8878 130.7 65.5826 138.281 52.9473C138.86 51.7893 143.844 49.5267 146.885 48.2373L147.144 50.5163L140.265 54.1628C140.265 54.1628 138.667 58.5648 136.662 64.4287C133.05 74.9902 128.127 90.2864 128.867 93.1321Z" fill="white"/>
<path d="M191.669 72.2964C189.841 72.2964 174.309 68.6746 174.309 68.6746L172.891 59.2875V59.1315L188.744 66.2026C188.744 66.2026 194.817 67.5988 195.071 63.4924C195.445 67.5988 193.185 72.2964 191.669 72.2964Z" fill="url(#paint12_linear_5_4719)"/>
<path d="M182.005 58.5648C182.005 58.5648 186.249 65.9768 188.764 66.1985C189.905 66.3328 191.055 66.3754 192.203 66.3258L193.066 61.3982L178.886 43.1085L173.865 47.7651L182.005 58.5648Z" fill="url(#paint13_linear_5_4719)"/>
<path opacity="0.24" d="M193.062 180.651L190.975 181.862C190.975 181.862 182.917 144.589 181.935 142.441C180.953 140.294 165.199 113.849 165.199 113.849L166.021 107.365L166.259 107.246L170.019 115.799L185.222 142.15L187.145 150.613L193.062 180.651ZM163.218 139.616L161.727 150.518C161.631 151.217 161.269 151.852 160.716 152.291C160.164 152.729 159.463 152.937 158.76 152.871L128.435 149.997C128.013 149.956 127.605 149.818 127.244 149.594C126.883 149.369 126.58 149.065 126.356 148.703H127.708L155.144 151.167C155.144 151.167 159.044 151.537 159.956 148.863C160.868 146.19 162.072 136.996 162.072 136.996C162.486 137.285 162.813 137.682 163.015 138.144C163.217 138.607 163.288 139.116 163.218 139.616Z" fill="white"/>
<path opacity="0.24" d="M158.76 152.871L156.817 167.679L126.434 166.866L159.265 170.791L160.864 152.165L158.76 152.871Z" fill="white"/>
<path d="M315.975 175.391L236.577 174.261C236.577 174.261 233.799 173.103 233.104 170.791C232.41 168.48 232.41 149.516 233.104 145.89C233.799 142.265 239.572 136.705 239.572 136.705C239.572 136.705 245.123 122.694 246.504 116.625C247.885 110.555 256.645 109.459 256.645 109.459H296.802C297.148 111.073 297.546 112.744 298.01 114.481C298.573 116.596 299.243 118.805 299.995 121.125C301.339 125.207 303.015 129.625 305.09 134.442C305.115 134.495 305.14 134.553 305.16 134.606C306.686 138.146 308.056 141.59 309.269 144.938C309.713 146.167 310.135 147.382 310.535 148.584C311.578 151.697 312.473 154.718 313.218 157.647C314.225 161.525 314.985 165.462 315.494 169.436C315.746 171.484 315.907 173.469 315.975 175.391ZM271.663 48.8451C269.876 48.5207 268.031 48.4714 266.301 47.917C267.172 49.2146 268.045 50.5109 268.919 51.8057C269.691 53.0391 270.579 54.1968 271.569 55.2633C273.019 56.7375 274.93 57.838 276.997 57.9817C278.472 58.0901 279.935 57.6515 281.106 56.7498C282.865 55.3331 281.854 54.4831 280.457 53.2183C277.99 50.9706 274.945 49.4559 271.663 48.8451ZM252.894 38.8009C252.607 39.3494 252.286 39.8788 251.932 40.386L253.489 40.041C253.976 39.9481 254.453 39.8107 254.915 39.6304C255.578 39.3726 256.125 38.882 256.452 38.2507C256.671 37.7964 256.715 37.2775 256.575 36.7929C256.345 36.0579 255.951 36.2714 255.371 36.5547C254.354 37.0609 253.496 37.8382 252.894 38.8009ZM58.7055 59.8912C57.8478 59.7974 56.9969 59.6492 56.1579 59.4477L57.3906 61.2955C57.7581 61.8807 58.179 62.4305 58.648 62.9381C59.3284 63.6669 60.249 64.1261 61.2408 64.2316C61.9448 64.2837 62.6432 64.073 63.2008 63.6402C64.0226 62.9668 63.5542 62.5644 62.8926 61.9608C61.7173 60.8943 60.267 60.1774 58.7055 59.8912ZM47.5948 95.6411C47.3077 96.1876 46.9865 96.7157 46.6332 97.222L48.1906 96.8771C48.6774 96.7842 49.1547 96.6467 49.6164 96.4664C50.2798 96.2075 50.8271 95.7174 51.1573 95.0867C51.3747 94.6319 51.4171 94.113 51.2764 93.6289C51.0463 92.8939 50.6519 93.1074 50.0766 93.3908C49.056 93.8956 48.1965 94.6749 47.5948 95.6411Z" fill="#68E1FD"/>
<path d="M305.177 134.614H249.434C248.987 134.614 248.546 134.51 248.146 134.311C247.746 134.112 247.398 133.823 247.128 133.468C246.858 133.112 246.673 132.699 246.589 132.26C246.505 131.821 246.524 131.369 246.644 130.939L249.931 119.179C250.483 117.197 251.669 115.45 253.308 114.206C254.948 112.962 256.949 112.288 259.008 112.288H297.489C297.661 113.007 297.85 113.738 298.047 114.481C298.61 116.596 299.28 118.805 300.032 121.125C301.376 125.207 303.052 129.625 305.127 134.442C305.131 134.504 305.156 134.561 305.177 134.614Z" fill="#3F3D56"/>
<path d="M315.494 169.436C314.793 169.874 313.983 170.106 313.156 170.106H244.454C243.292 170.106 242.177 169.647 241.352 168.829C240.527 168.012 240.058 166.902 240.049 165.741V153.011C240.048 152.432 240.162 151.86 240.383 151.325C240.604 150.791 240.928 150.305 241.337 149.896C241.746 149.486 242.232 149.162 242.767 148.94C243.302 148.719 243.875 148.605 244.454 148.605H310.543C311.587 151.717 312.481 154.738 313.226 157.668C314.23 161.539 314.987 165.47 315.494 169.436Z" fill="url(#paint14_linear_5_4719)"/>
<path d="M309.277 144.946H274.174C268.746 138.29 249.434 134.614 249.434 134.614H305.177C306.702 138.154 308.069 141.598 309.277 144.946Z" fill="url(#paint15_linear_5_4719)"/>
<path d="M253.296 152.884H247.675C245.251 152.884 243.287 154.847 243.287 157.269V162.887C243.287 165.309 245.251 167.272 247.675 167.272H253.296C255.72 167.272 257.685 165.309 257.685 162.887V157.269C257.685 154.847 255.72 152.884 253.296 152.884Z" fill="white"/>
<path d="M310.206 156.916H268.228C267.873 156.916 267.532 156.775 267.281 156.524C267.03 156.273 266.889 155.932 266.889 155.577C266.889 155.222 267.03 154.882 267.281 154.631C267.532 154.38 267.873 154.239 268.228 154.239H310.206C310.561 154.239 310.902 154.38 311.153 154.631C311.404 154.882 311.546 155.222 311.546 155.577C311.546 155.932 311.404 156.273 311.153 156.524C310.902 156.775 310.561 156.916 310.206 156.916Z" fill="#68E1FD"/>
<path d="M310.206 158.021H268.228C267.489 158.021 266.889 158.62 266.889 159.359V159.363C266.889 160.103 267.489 160.702 268.228 160.702H310.206C310.946 160.702 311.546 160.103 311.546 159.363V159.359C311.546 158.62 310.946 158.021 310.206 158.021Z" fill="#68E1FD"/>
<path d="M310.206 164.476H268.228C267.873 164.476 267.532 164.335 267.281 164.084C267.03 163.833 266.889 163.492 266.889 163.137C266.889 162.782 267.03 162.442 267.281 162.191C267.532 161.94 267.873 161.799 268.228 161.799H310.206C310.561 161.799 310.902 161.94 311.153 162.191C311.404 162.442 311.546 162.782 311.546 163.137C311.546 163.492 311.404 163.833 311.153 164.084C310.902 164.335 310.561 164.476 310.206 164.476Z" fill="#68E1FD"/>
<path d="M279.347 103.451L281.073 98.6592C281.363 97.8435 281.899 97.1375 282.607 96.6383C283.315 96.1391 284.16 95.871 285.026 95.871H294.982L295.75 103.357L279.347 103.451Z" fill="white"/>
<path opacity="0.16" d="M291.029 95.871L294.501 103.455L295.734 103.361L294.966 95.871H291.029Z" fill="#222A72"/>
</g>
<defs>
<linearGradient id="paint0_linear_5_4719" x1="147.46" y1="132.151" x2="176.82" y2="181.189" gradientUnits="userSpaceOnUse">
<stop stop-color="#68E1FD"/>
<stop offset="0.01" stop-color="#67DDF9"/>
<stop offset="0.12" stop-color="#5CB3CE"/>
<stop offset="0.24" stop-color="#538EA9"/>
<stop offset="0.37" stop-color="#4C718B"/>
<stop offset="0.5" stop-color="#465A73"/>
<stop offset="0.63" stop-color="#424A63"/>
<stop offset="0.79" stop-color="#404059"/>
<stop offset="0.99" stop-color="#3F3D56"/>
</linearGradient>
<linearGradient id="paint1_linear_5_4719" x1="168.018" y1="38.0618" x2="178.886" y2="38.0618" gradientUnits="userSpaceOnUse">
<stop stop-color="#ECC4D7"/>
<stop offset="0.42" stop-color="#EFD4D1"/>
<stop offset="1" stop-color="#F2EAC9"/>
</linearGradient>
<linearGradient id="paint2_linear_5_4719" x1="164.644" y1="35.1956" x2="174.025" y2="35.1956" gradientUnits="userSpaceOnUse">
<stop stop-color="#183866"/>
<stop offset="1" stop-color="#1A7FC1"/>
</linearGradient>
<linearGradient id="paint3_linear_5_4719" x1="167.841" y1="32.4936" x2="173.908" y2="44.4216" gradientUnits="userSpaceOnUse">
<stop stop-color="#183866"/>
<stop offset="1" stop-color="#1A7FC1"/>
</linearGradient>
<linearGradient id="paint4_linear_5_4719" x1="165.885" y1="91.7729" x2="116.055" y2="95.2924" gradientUnits="userSpaceOnUse">
<stop offset="0.21" stop-color="#68E1FD" stop-opacity="0"/>
<stop offset="0.22" stop-color="#66DAF6" stop-opacity="0.04"/>
<stop offset="0.35" stop-color="#58A1BC" stop-opacity="0.39"/>
<stop offset="0.48" stop-color="#4D758F" stop-opacity="0.66"/>
<stop offset="0.62" stop-color="#45566F" stop-opacity="0.85"/>
<stop offset="0.78" stop-color="#40435C" stop-opacity="0.96"/>
<stop offset="0.99" stop-color="#3F3D56"/>
</linearGradient>
<linearGradient id="paint5_linear_5_4719" x1="149.227" y1="36.6287" x2="169.382" y2="36.6287" gradientUnits="userSpaceOnUse">
<stop stop-color="#ECC4D7"/>
<stop offset="0.42" stop-color="#EFD4D1"/>
<stop offset="1" stop-color="#F2EAC9"/>
</linearGradient>
<linearGradient id="paint6_linear_5_4719" x1="168.786" y1="39.5113" x2="170.908" y2="43.6886" gradientUnits="userSpaceOnUse">
<stop stop-color="#ECC4D7"/>
<stop offset="0.42" stop-color="#EFD4D1"/>
<stop offset="1" stop-color="#F2EAC9"/>
</linearGradient>
<linearGradient id="paint7_linear_5_4719" x1="139.678" y1="125.626" x2="150.719" y2="125.626" gradientUnits="userSpaceOnUse">
<stop stop-color="#ECC4D7"/>
<stop offset="0.42" stop-color="#EFD4D1"/>
<stop offset="1" stop-color="#F2EAC9"/>
</linearGradient>
<linearGradient id="paint8_linear_5_4719" x1="164.587" y1="48.4139" x2="143.654" y2="72.2894" gradientUnits="userSpaceOnUse">
<stop stop-color="#68E1FD" stop-opacity="0"/>
<stop offset="0.99" stop-color="#3F3D56"/>
</linearGradient>
<linearGradient id="paint9_linear_5_4719" x1="161.423" y1="58.5689" x2="166.423" y2="58.5689" gradientUnits="userSpaceOnUse">
<stop stop-color="#68E1FD" stop-opacity="0"/>
<stop offset="0.99" stop-color="#3F3D56"/>
</linearGradient>
<linearGradient id="paint10_linear_5_4719" x1="156.245" y1="49.1325" x2="167.52" y2="75.4595" gradientUnits="userSpaceOnUse">
<stop stop-color="#68E1FD" stop-opacity="0"/>
<stop offset="0.99" stop-color="#3F3D56"/>
</linearGradient>
<linearGradient id="paint11_linear_5_4719" x1="174.477" y1="78.4108" x2="157.642" y2="137.737" gradientUnits="userSpaceOnUse">
<stop stop-color="#68E1FD" stop-opacity="0"/>
<stop offset="0.02" stop-color="#66DAF6" stop-opacity="0.04"/>
<stop offset="0.18" stop-color="#58A1BC" stop-opacity="0.39"/>
<stop offset="0.35" stop-color="#4D758F" stop-opacity="0.66"/>
<stop offset="0.53" stop-color="#45566F" stop-opacity="0.85"/>
<stop offset="0.73" stop-color="#40435C" stop-opacity="0.96"/>
<stop offset="0.99" stop-color="#3F3D56"/>
</linearGradient>
<linearGradient id="paint12_linear_5_4719" x1="187.112" y1="57.0003" x2="174.724" y2="82.0513" gradientUnits="userSpaceOnUse">
<stop offset="0.21" stop-color="#68E1FD" stop-opacity="0"/>
<stop offset="0.22" stop-color="#66DAF6" stop-opacity="0.04"/>
<stop offset="0.35" stop-color="#58A1BC" stop-opacity="0.39"/>
<stop offset="0.48" stop-color="#4D758F" stop-opacity="0.66"/>
<stop offset="0.62" stop-color="#45566F" stop-opacity="0.85"/>
<stop offset="0.78" stop-color="#40435C" stop-opacity="0.96"/>
<stop offset="0.99" stop-color="#3F3D56"/>
</linearGradient>
<linearGradient id="paint13_linear_5_4719" x1="187.314" y1="72.124" x2="173.914" y2="11.026" gradientUnits="userSpaceOnUse">
<stop offset="0.21" stop-color="#68E1FD" stop-opacity="0"/>
<stop offset="0.22" stop-color="#66DAF6" stop-opacity="0.04"/>
<stop offset="0.35" stop-color="#58A1BC" stop-opacity="0.39"/>
<stop offset="0.48" stop-color="#4D758F" stop-opacity="0.66"/>
<stop offset="0.62" stop-color="#45566F" stop-opacity="0.85"/>
<stop offset="0.78" stop-color="#40435C" stop-opacity="0.96"/>
<stop offset="0.99" stop-color="#3F3D56"/>
</linearGradient>
<linearGradient id="paint14_linear_5_4719" x1="196.399" y1="132.853" x2="377.057" y2="192.23" gradientUnits="userSpaceOnUse">
<stop stop-color="#68E1FD" stop-opacity="0"/>
<stop offset="0.27" stop-color="#58A0BB" stop-opacity="0.39"/>
<stop offset="0.56" stop-color="#4A6A84" stop-opacity="0.73"/>
<stop offset="0.8" stop-color="#424962" stop-opacity="0.93"/>
<stop offset="0.99" stop-color="#3F3D56"/>
</linearGradient>
<linearGradient id="paint15_linear_5_4719" x1="231.264" y1="120.825" x2="356.109" y2="161.39" gradientUnits="userSpaceOnUse">
<stop stop-color="#68E1FD" stop-opacity="0"/>
<stop offset="0.27" stop-color="#58A0BB" stop-opacity="0.39"/>
<stop offset="0.56" stop-color="#4A6A84" stop-opacity="0.73"/>
<stop offset="0.8" stop-color="#424962" stop-opacity="0.93"/>
<stop offset="0.99" stop-color="#3F3D56"/>
</linearGradient>
<clipPath id="clip0_5_4719">
<rect width="324" height="219" fill="white"/>
</clipPath>
</defs>
</svg>
