<svg width="16" height="16" viewBox="0 0 16 16" fill="none" xmlns="http://www.w3.org/2000/svg">
<path d="M7.33333 1.33398H6C2.66667 1.33398 1.33333 2.66732 1.33333 6.00065V10.0007C1.33333 13.334 2.66667 14.6673 6 14.6673H10C13.3333 14.6673 14.6667 13.334 14.6667 10.0007V8.66732" stroke="#575757" stroke-width="1.5" stroke-linecap="round" stroke-linejoin="round"/>
<path d="M10.6933 2.0135L5.44 7.26684C5.24 7.46684 5.04 7.86017 5 8.14684L4.71333 10.1535C4.60667 10.8802 5.12 11.3868 5.84667 11.2868L7.85333 11.0002C8.13333 10.9602 8.52667 10.7602 8.73333 10.5602L13.9867 5.30684C14.8933 4.40017 15.32 3.34684 13.9867 2.0135C12.6533 0.680168 11.6 1.10684 10.6933 2.0135Z" stroke="#575757" stroke-width="1.5" stroke-miterlimit="10" stroke-linecap="round" stroke-linejoin="round"/>
<path d="M9.94 2.76758C10.3867 4.36091 11.6333 5.60758 13.2333 6.06091" stroke="#575757" stroke-width="1.5" stroke-miterlimit="10" stroke-linecap="round" stroke-linejoin="round"/>
</svg>
