<svg width="48" height="48" viewBox="0 0 48 48" fill="none" xmlns="http://www.w3.org/2000/svg">
<path fill-rule="evenodd" clip-rule="evenodd" d="M5.17157 5.17157C4 6.34315 4 8.22877 4 12V36C4 39.7712 4 41.6569 5.17157 42.8284C6.34315 44 8.22876 44 12 44H36C39.7712 44 41.6569 44 42.8284 42.8284C44 41.6569 44 39.7712 44 36V12C44 8.42266 44 6.54202 43 5.3581V34C41.6765 34 41.0147 34 40.4049 33.799C40.2165 33.7369 40.033 33.6609 39.8558 33.5716C39.2825 33.2825 38.8145 32.8145 37.8787 31.8787L34.8284 28.8284C33.4951 27.4951 32.8284 26.8284 32 26.8284C31.1716 26.8284 30.5049 27.4951 29.1716 28.8284L26.0888 31.9112C25.1424 32.8576 24.6692 33.3308 24.1482 33.2304C23.6272 33.1301 23.3636 32.515 22.8363 31.2848L20.3273 25.4304C19.2729 22.97 18.7456 21.7398 17.7036 21.5391C16.6615 21.3385 15.7151 22.2849 13.8223 24.1777L7 31V4.25201C6.2255 4.4206 5.64118 4.70197 5.17157 5.17157Z" fill="#8D8D8D"/>
<path d="M5 12C5 10.0861 5.00212 8.75129 5.13753 7.74416C5.26907 6.76579 5.50966 6.2477 5.87868 5.87868C6.2477 5.50966 6.76579 5.26907 7.74416 5.13753C8.75129 5.00212 10.0861 5 12 5H36C37.9139 5 39.2487 5.00212 40.2558 5.13753C41.2342 5.26907 41.7523 5.50966 42.1213 5.87868C42.4903 6.2477 42.7309 6.76579 42.8625 7.74416C42.9979 8.75129 43 10.0861 43 12V36C43 37.9139 42.9979 39.2487 42.8625 40.2558C42.7309 41.2342 42.4903 41.7523 42.1213 42.1213C41.7523 42.4903 41.2342 42.7309 40.2558 42.8625C39.2487 42.9979 37.9139 43 36 43H12C10.0861 43 8.75129 42.9979 7.74416 42.8625C6.76579 42.7309 6.2477 42.4903 5.87868 42.1213C5.50966 41.7523 5.26907 41.2342 5.13753 40.2558C5.00212 39.2487 5 37.9139 5 36V12Z" stroke="#8D8D8D" stroke-width="2"/>
<circle cx="30" cy="18" r="4" fill="#8D8D8D"/>
</svg>
