<svg width="24" height="24" viewBox="0 0 24 24" fill="none" xmlns="http://www.w3.org/2000/svg">
<path d="M18.0759 1.554L22.2489 5.904V22.446H6.66016V22.5H22.3022V5.95875L18.0759 1.554Z" fill="#909090"/>
<path d="M18.0227 1.5H6.60547V22.446H22.2475V5.90475L18.0227 1.5Z" fill="#F4F4F4"/>
<path d="M6.49172 2.625H1.69922V7.74525H16.7742V2.625H6.49172Z" fill="#7A7B7C"/>
<path d="M16.8546 7.65825H1.79688V2.53425H16.8546V7.65825Z" fill="#DD2025"/>
<path d="M6.78884 3.4005H5.80859V7.0005H6.57959V5.78625L6.74984 5.796C6.91527 5.79315 7.07915 5.76352 7.23509 5.70825C7.37182 5.66122 7.4976 5.58698 7.60484 5.49C7.71397 5.39762 7.8 5.28102 7.85609 5.1495C7.93132 4.93087 7.95818 4.69853 7.93484 4.4685C7.93016 4.30418 7.90135 4.14144 7.84934 3.9855C7.802 3.87293 7.73174 3.77145 7.64303 3.68752C7.55432 3.60359 7.44911 3.53905 7.33409 3.498C7.23465 3.462 7.13191 3.43587 7.02734 3.42C6.94816 3.40778 6.86821 3.40127 6.78809 3.4005M6.64634 5.121H6.57959V4.011H6.72434C6.78823 4.00639 6.85233 4.0162 6.91192 4.0397C6.9715 4.06319 7.02505 4.09978 7.06859 4.14675C7.15883 4.26751 7.20704 4.4145 7.20584 4.56525C7.20584 4.74975 7.20584 4.917 7.03934 5.03475C6.91939 5.10072 6.78286 5.13118 6.64634 5.121ZM9.39959 3.39075C9.31634 3.39075 9.23534 3.39675 9.17834 3.399L8.99984 3.4035H8.41484V7.0035H9.10334C9.36646 7.01071 9.62843 6.96612 9.87434 6.87225C10.0723 6.79374 10.2476 6.66719 10.3843 6.504C10.5174 6.33934 10.6128 6.14763 10.6641 5.94225C10.723 5.70965 10.7518 5.47044 10.7496 5.2305C10.7641 4.94712 10.7422 4.66304 10.6843 4.38525C10.6294 4.18077 10.5266 3.99232 10.3843 3.8355C10.2727 3.70887 10.1361 3.60673 9.98309 3.5355C9.85168 3.47469 9.71344 3.42987 9.57134 3.402C9.51484 3.39267 9.45761 3.3884 9.40034 3.38925M9.26384 6.342H9.18884V4.044H9.19859C9.35321 4.02621 9.50966 4.05411 9.64859 4.12425C9.75034 4.2055 9.83325 4.30785 9.89159 4.42425C9.95456 4.54675 9.99086 4.6812 9.99809 4.81875C10.0048 4.98375 9.99809 5.11875 9.99809 5.2305C10.0011 5.35923 9.99287 5.48798 9.97334 5.61525C9.95023 5.74592 9.9075 5.87235 9.84659 5.99025C9.77766 6.09987 9.68453 6.19223 9.57434 6.26025C9.48181 6.3201 9.37223 6.34802 9.26234 6.33975M13.0723 3.4035H11.2498V7.0035H12.0208V5.5755H12.9958V4.9065H12.0208V4.0725H13.0708V3.4035" fill="#464648"/>
<path d="M16.3365 15.1912C16.3365 15.1912 18.7275 14.7578 18.7275 15.5745C18.7275 16.3913 17.2462 16.059 16.3365 15.1912ZM14.5687 15.2535C14.1889 15.3374 13.8187 15.4603 13.464 15.6202L13.764 14.9453C14.064 14.2702 14.3752 13.35 14.3752 13.35C14.7332 13.9525 15.1497 14.5182 15.6187 15.039C15.2651 15.0917 14.9145 15.1638 14.5687 15.255V15.2535ZM13.6222 10.3785C13.6222 9.66675 13.8525 9.4725 14.0317 9.4725C14.211 9.4725 14.4127 9.55875 14.4195 10.1768C14.3611 10.7982 14.231 11.4107 14.0317 12.0023C13.7588 11.5056 13.6176 10.9474 13.6215 10.3807L13.6222 10.3785ZM10.1355 18.2655C9.40199 17.8268 11.6737 16.476 12.0855 16.4325C12.0832 16.4332 10.9035 18.7245 10.1355 18.2655ZM19.4257 15.6713C19.4182 15.5963 19.3507 14.766 17.8732 14.8013C17.2574 14.7913 16.6419 14.8347 16.0335 14.931C15.4442 14.3373 14.9367 13.6676 14.5245 12.9398C14.7842 12.1893 14.9414 11.4073 14.9917 10.6147C14.97 9.71475 14.7547 9.19875 14.0647 9.20625C13.3747 9.21375 13.2742 9.8175 13.365 10.716C13.4539 11.3198 13.6216 11.9093 13.8637 12.4695C13.8637 12.4695 13.545 13.4617 13.1235 14.4487C12.702 15.4357 12.414 15.9532 12.414 15.9532C11.681 16.1919 10.991 16.5463 10.3702 17.0033C9.75225 17.5785 9.501 18.0202 9.8265 18.462C10.107 18.843 11.0887 18.9292 11.9662 17.7795C12.4325 17.1857 12.8584 16.5613 13.2412 15.9105C13.2412 15.9105 14.5792 15.5437 14.9955 15.4432C15.4117 15.3428 15.915 15.2633 15.915 15.2633C15.915 15.2633 17.1367 16.4925 18.315 16.449C19.4932 16.4055 19.4362 15.7447 19.4287 15.6727" fill="#DD2025"/>
<path d="M17.9648 1.55775V5.9625H22.1896L17.9648 1.55775Z" fill="#909090"/>
<path d="M18.0234 1.5V5.90475H22.2482L18.0234 1.5Z" fill="#F4F4F4"/>
<path d="M6.7322 3.34275H5.75195V6.94275H6.52595V5.72925L6.69695 5.739C6.86238 5.73615 7.02625 5.70652 7.1822 5.65125C7.31892 5.6042 7.4447 5.52996 7.55195 5.433C7.66026 5.34036 7.74551 5.22379 7.80095 5.0925C7.87617 4.87387 7.90304 4.64152 7.8797 4.4115C7.87502 4.24718 7.84621 4.08444 7.7942 3.9285C7.74686 3.81593 7.6766 3.71445 7.58789 3.63052C7.49918 3.54659 7.39397 3.48204 7.27895 3.441C7.17905 3.40464 7.0758 3.37827 6.9707 3.36225C6.89152 3.35003 6.81157 3.34351 6.73145 3.34275M6.5897 5.06325H6.52295V3.95325H6.66845C6.73234 3.94864 6.79644 3.95845 6.85603 3.98194C6.91561 4.00544 6.96916 4.04203 7.0127 4.089C7.10294 4.20976 7.15115 4.35675 7.14995 4.5075C7.14995 4.692 7.14995 4.85925 6.98345 4.977C6.8635 5.04297 6.72697 5.07267 6.59045 5.0625M9.34295 3.333C9.2597 3.333 9.1787 3.339 9.1217 3.34125L8.94545 3.34575H8.36045V6.94575H9.04895C9.31207 6.95296 9.57404 6.90836 9.81995 6.8145C10.0179 6.73599 10.1932 6.60943 10.33 6.44625C10.463 6.28159 10.5584 6.08988 10.6097 5.8845C10.6686 5.6519 10.6974 5.41268 10.6952 5.17275C10.7098 4.88936 10.6878 4.60529 10.63 4.3275C10.575 4.12302 10.4722 3.93457 10.33 3.77775C10.2183 3.65112 10.0817 3.54897 9.9287 3.47775C9.79729 3.41693 9.65905 3.37211 9.51695 3.34425C9.46045 3.33491 9.40322 3.33065 9.34595 3.3315M9.20945 6.28425H9.13445V3.98625H9.1442C9.29882 3.96846 9.45527 3.99636 9.5942 4.0665C9.69595 4.14774 9.77886 4.2501 9.8372 4.3665C9.90017 4.489 9.93647 4.62345 9.9437 4.761C9.95045 4.926 9.9437 5.061 9.9437 5.17275C9.94676 5.30147 9.93847 5.43022 9.91895 5.5575C9.89584 5.68817 9.8531 5.8146 9.7922 5.9325C9.72327 6.04211 9.63014 6.13448 9.51995 6.2025C9.42742 6.26235 9.31784 6.29027 9.20795 6.282M13.0157 3.34575H11.1932V6.94575H11.9642V5.51775H12.9392V4.84875H11.9642V4.01475H13.0142V3.34575" fill="white"/>
</svg>
