<svg width="12" height="14" viewBox="0 0 12 14" fill="none" xmlns="http://www.w3.org/2000/svg">
<path fill-rule="evenodd" clip-rule="evenodd" d="M5.81871 13.609C5.89254 13.6476 5.97509 13.6672 6.05764 13.6666C6.1402 13.6659 6.22208 13.6456 6.29658 13.6064L8.67516 12.3349C9.34968 11.9753 9.87788 11.5733 10.29 11.1052C11.186 10.0854 11.6752 8.7838 11.6665 7.44168L11.6383 3.01457C11.6356 2.50466 11.3007 2.04966 10.8054 1.88426L6.38047 0.399628C6.11402 0.309412 5.82207 0.311374 5.56031 0.404204L1.15214 1.94179C0.659512 2.11373 0.330645 2.57199 0.333329 3.08256L0.361518 7.5064C0.370243 8.85048 0.876297 10.1462 1.78706 11.1556C2.20318 11.6171 2.73608 12.0133 3.41798 12.3669L5.81871 13.609ZM5.18902 8.40587C5.28835 8.50132 5.41721 8.54839 5.54608 8.54708C5.67494 8.54642 5.80313 8.49805 5.90112 8.4013L8.50052 5.83865C8.69583 5.6458 8.69381 5.33593 8.49649 5.14569C8.2985 4.95545 7.9797 4.95676 7.78439 5.14961L5.53869 7.36316L4.61921 6.47931C4.42121 6.28907 4.10309 6.29103 3.90711 6.48389C3.7118 6.67674 3.71381 6.98661 3.91181 7.17685L5.18902 8.40587Z" fill="#3669C9"/>
</svg>
